<?xml version="1.0" encoding="utf-8"?>
<!-- Generator: Adobe Illustrator 26.0.3, SVG Export Plug-In . SVG Version: 6.00 Build 0)  -->
<svg version="1.1" id="Layer_1" xmlns="http://www.w3.org/2000/svg" xmlns:xlink="http://www.w3.org/1999/xlink" x="0px" y="0px"
	 viewBox="0 0 3000 856" style="enable-background:new 0 0 3000 856;" xml:space="preserve">
<style type="text/css">
	.st0{fill-rule:evenodd;clip-rule:evenodd;fill:#CECC7D;}
	.st1{fill-rule:evenodd;clip-rule:evenodd;fill:#3AB38F;}
	.st2{fill-rule:evenodd;clip-rule:evenodd;fill:#6CF1AD;}
	.st3{fill-rule:evenodd;clip-rule:evenodd;fill:#FF1E56;}
	.st4{fill-rule:evenodd;clip-rule:evenodd;fill:#F83704;}
	.st5{fill-rule:evenodd;clip-rule:evenodd;fill:#FCE500;}
	.st6{fill-rule:evenodd;clip-rule:evenodd;fill:#7A7812;}
	.st7{fill-rule:evenodd;clip-rule:evenodd;fill:#FAFAFA;filter:url(#Adobe_OpacityMaskFilter);}
	.st8{mask:url(#b_00000058558862497993724230000014503174649791688891_);}
	
		.st9{fill-rule:evenodd;clip-rule:evenodd;fill:#FAFAFA;filter:url(#Adobe_OpacityMaskFilter_00000030474140986803880960000001595044944116755374_);}
	.st10{mask:url(#b_00000046333620241385654550000017108459182502688390_);}
	.st11{fill-rule:evenodd;clip-rule:evenodd;fill:#FFE9B9;}
	.st12{fill-rule:evenodd;clip-rule:evenodd;fill:#41DFF9;}
	.st13{fill-rule:evenodd;clip-rule:evenodd;fill:#FF8464;}
	.st14{fill-rule:evenodd;clip-rule:evenodd;fill:#0B5A82;}
	.st15{fill-rule:evenodd;clip-rule:evenodd;fill:#8F80FF;}
	.st16{fill-rule:evenodd;clip-rule:evenodd;fill:#A8FFD5;}
	.st17{fill-rule:evenodd;clip-rule:evenodd;fill:#111C4F;}
	.st18{fill-rule:evenodd;clip-rule:evenodd;fill:#FFD26E;}
	.st19{fill-rule:evenodd;clip-rule:evenodd;fill:#DF003D;}
	.st20{fill:none;stroke:#111C4F;stroke-width:350;}
	.st21{fill-rule:evenodd;clip-rule:evenodd;fill:#A5F8F5;}
</style>
<path class="st0" d="M0-0.5h3000v171H0V-0.5z"/>
<path class="st1" d="M0,170.5h3000v171H0V170.5z"/>
<path class="st2" d="M0,683.5h3000v171H0V683.5z"/>
<path class="st3" d="M0,341.5h3000v171H0V341.5z"/>
<path class="st4" d="M1500-0.5h750l-100,171h-750L1500-0.5z"/>
<path class="st5" d="M0-0.5h1500l-100,171H-100L0-0.5z"/>
<path class="st2" d="M1406,170.5h1500l-100,171H1306L1406,170.5z"/>
<path class="st6" d="M240,683.5h1800l-100,171H140L240,683.5z"/>
<g transform="translate(238.589949 26.5)">
	<defs>
		<filter id="Adobe_OpacityMaskFilter" filterUnits="userSpaceOnUse" x="69.4" y="382.7" width="636.1" height="636.1">
			<feColorMatrix  type="matrix" values="1 0 0 0 0  0 1 0 0 0  0 0 1 0 0  0 0 0 1 0"/>
		</filter>
	</defs>
	
		<mask maskUnits="userSpaceOnUse" x="69.4" y="382.7" width="636.1" height="636.1" id="b_00000058558862497993724230000014503174649791688891_">
		<path class="st7" d="M-238.6-26.5h541.9v1025h-541.9V-26.5z"/>
	</mask>
	<g class="st8">
		<g transform="matrix(.70710678 -.70710678 .70710678 .70710678 31.197375 474.847563)">
			<path class="st0" d="M0,85.3h184.3v684H0V85.3z"/>
			<circle class="st6" cx="92.1" cy="92.1" r="92.1"/>
		</g>
	</g>
	<defs>
		
			<filter id="Adobe_OpacityMaskFilter_00000087375071763364680290000008986619323457680294_" filterUnits="userSpaceOnUse" x="40" y="25.8" width="822.1" height="822.1">
			<feColorMatrix  type="matrix" values="1 0 0 0 0  0 1 0 0 0  0 0 1 0 0  0 0 0 1 0"/>
		</filter>
	</defs>
	
		<mask maskUnits="userSpaceOnUse" x="40" y="25.8" width="822.1" height="822.1" id="b_00000046333620241385654550000017108459182502688390_">
		
			<path style="fill-rule:evenodd;clip-rule:evenodd;fill:#FAFAFA;filter:url(#Adobe_OpacityMaskFilter_00000087375071763364680290000008986619323457680294_);" d="
			M-238.6-26.5h541.9v1025h-541.9V-26.5z"/>
	</mask>
	<g class="st10">
		<g transform="matrix(.70710678 -.70710678 .70710678 .70710678 -17.830856 165.300557)">
			<path class="st0" d="M0,129.1h279v836.2H0V129.1z"/>
			<circle class="st6" cx="139.5" cy="139.5" r="139.5"/>
		</g>
	</g>
</g>
<g transform="translate(622.5 455.569573)">
	<path class="st11" d="M0,0h399.1v399.1H0V0z"/>
	<path class="st12" d="M399.1,0v399.1H0L399.1,0z"/>
</g>
<g transform="translate(595 -.5)">
	<path class="st13" d="M0,0h684v684H0V0z"/>
	<path class="st11" d="M0,333.2L684,1v350.8L0,684V333.2z"/>
</g>
<g transform="matrix(0 -1 1 0 2072.5 271.605469)">
	<path class="st13" d="M0,108.8h235.1v306.1H0V108.8z"/>
	<circle class="st14" cx="117.5" cy="117.5" r="117.5"/>
	<circle class="st13" cx="117.5" cy="407.4" r="117.5"/>
</g>
<path class="st14" d="M777.2-0.5h511.6l425.8,614H1203L777.2-0.5z"/>
<g>
	<circle id="a_00000072261681613857467030000001430766750012202148_" class="st15" cx="2327.9" cy="598" r="131.9"/>
</g>
<path class="st15" d="M2328,466c72.9,0,132,59.1,132,132s-59.1,132-132,132V466z"/>
<circle class="st15" cx="2592.3" cy="598" r="132"/>
<g>
	<path class="st1" d="M1127,250.5c49.8,0,90.2,39.9,91,89.5l0,1.5h-182C1036,291.2,1076.7,250.5,1127,250.5z"/>
	<path class="st1" d="M1673,250.5c49.8,0,90.2,39.9,91,89.5l0,1.5h-182C1582,291.2,1622.7,250.5,1673,250.5z"/>
	<path class="st1" d="M1309,250.5c49.8,0,90.2,39.9,91,89.5l0,1.5h-182C1218,291.2,1258.7,250.5,1309,250.5z"/>
	<path class="st1" d="M1855,250.5c49.8,0,90.2,39.9,91,89.5l0,1.5h-182C1764,291.2,1804.7,250.5,1855,250.5z"/>
	<path class="st1" d="M945,250.5c49.8,0,90.2,39.9,91,89.5l0,1.5H854C854,291.2,894.7,250.5,945,250.5z"/>
	<path class="st1" d="M1491,250.5c49.8,0,90.2,39.9,91,89.5l0,1.5h-182C1400,291.2,1440.7,250.5,1491,250.5z"/>
</g>
<path class="st0" d="M459,422.3l11,17.5l30.5,40.3l122,133.5v-92L459,422.3z"/>
<path class="st15" d="M0,512.5h3000v171H0V512.5z"/>
<path class="st16" d="M1500,512.5h1600l-100,171H1400L1500,512.5z"/>
<path class="st17" d="M2589.5,587.5l-254.5-417h509.1L2589.5,587.5z"/>
<path class="st14" d="M2676.4,170.5l254.8,417h-509.7L2676.4,170.5z"/>
<path class="st18" d="M1776,512.5l276,168.6V967l-276-168.6V512.5z"/>
<path class="st19" d="M1776,683l-276,168.6v285.9l276-168.6V683z"/>
<path class="st3" d="M2051.9,683l-276,168.6v285.9l276-168.6V683z"/>
<path class="st5" d="M1501,512.5l276,168.6V967l-276-168.6V512.5z"/>
<g transform="translate(276.5 548.132812)">
	<path class="st20" d="M0,203.3c0,112.3,91,203.3,203.3,203.3s203.3-91,203.3-203.3"/>
	<path class="st20" d="M813.3,203.3c0,112.3,91,203.3,203.3,203.3s203.3-91,203.3-203.3"/>
	<path class="st20" d="M813.3,203.3C813.3,91,722.3,0,610,0S406.7,91,406.7,203.3"/>
	<path class="st20" d="M1626.6,203.3C1626.6,91,1535.6,0,1423.3,0S1220,91,1220,203.3"/>
</g>
<path class="st3" d="M2432,854.5l-4,0c0,0,0,0,0,0l0-243.2h243.2c0,0,0,0,0,0C2671.2,744.3,2564.5,852.3,2432,854.5L2432,854.5z"/>
<path class="st5" d="M2688,854.5L2688,854.5l0-312h312c0,0,0,0,0,0C3000,714.8,2860.3,854.5,2688,854.5z"/>
<path class="st16" d="M302.1,396.5C302.1,396.5,302.1,396.5,302.1,396.5l0,287h-287c0,0,0,0,0,0C15.1,525,143.6,396.5,302.1,396.5z"
	/>
<path class="st21" d="M280.9,171L0.3,342.5v-343L280.9,171z"/>
<path class="st12" d="M146.2,88.7L0.3,177.9V-0.5L146.2,88.7z"/>
<circle class="st16" cx="2368.2" cy="1015.2" r="243.2"/>
<path class="st1" d="M2368.2,772c134.3,0,243.2,108.9,243.2,243.2s-108.9,243.2-243.2,243.2c0,0,0,0,0,0L2368.2,772L2368.2,772z"/>
</svg>
