<?xml version="1.0" encoding="UTF-8"?>
<svg width="3000px" height="856px" viewBox="0 0 3000 856" version="1.1" xmlns="http://www.w3.org/2000/svg" xmlns:xlink="http://www.w3.org/1999/xlink">
    <title>color-banner</title>
    <defs>
        <rect id="path-1" x="0" y="0" width="541.91722" height="1025"></rect>
        <circle id="path-3" cx="131.936599" cy="132" r="131.914805"></circle>
    </defs>
    <g id="color-banner" stroke="none" stroke-width="1" fill="none" fill-rule="evenodd">
        <rect id="Rectangle-Copy-2" fill="#FFE3A4" x="0" y="-0.5" width="3000" height="171"></rect>
        <rect id="Rectangle-Copy-3" fill="#3AB38F" x="0" y="170.5" width="3000" height="171"></rect>
        <rect id="Rectangle-Copy-6" fill="#26117C" x="0" y="683.5" width="3000" height="171"></rect>
        <rect id="Rectangle-Copy-4" fill="#F20C78" x="0" y="341.5" width="3000" height="171"></rect>
        <polygon id="Rectangle-Copy" fill="#C1A209" points="1500 -0.5 2250 -0.5 2150 170.5 1400 170.5"></polygon>
        <polygon id="Rectangle" fill="#FFDF00" points="0 -0.5 1500 -0.5 1400 170.5 -100 170.5"></polygon>
        <polygon id="Rectangle-Copy-5" fill="#00DD9B" points="1406 170.5 2906 170.5 2806 341.5 1306 341.5"></polygon>
        <polygon id="Rectangle-Copy-38" fill="#09104B" points="240 683.5 2040 683.5 1940 854.5 140 854.5"></polygon>
        <g id="Group-5-Copy-+-Group-5-Mask" transform="translate(238.589949, 26.500000)">
            <mask id="mask-2" fill="white">
                <use xlink:href="#path-1"></use>
            </mask>
            <g id="Mask"></g>
            <g id="Group-5-Copy-3" mask="url(#mask-2)">
                <g transform="translate(368.840863, 681.676296) rotate(-45.000000) translate(-368.840863, -681.676296) translate(276.340863, 296.676296)">
                    <rect id="Rectangle" fill="#FFE3A4" x="-1.3650411e-13" y="85.2919345" width="184.272698" height="684.00039"></rect>
                    <circle id="Oval" fill="#F20C78" cx="92.136349" cy="92.136349" r="92.136349"></circle>
                </g>
            </g>
            <g id="Group-5-Copy" mask="url(#mask-2)">
                <g transform="translate(422.696669, 407.838183) rotate(-45.000000) translate(-422.696669, -407.838183) translate(282.696669, -75.161817)">
                    <rect id="Rectangle" fill="#FFE3A4" x="0" y="129.140499" width="279.007252" height="836.224592"></rect>
                    <circle id="Oval" fill="#F20C78" cx="139.503626" cy="139.503626" r="139.503626"></circle>
                </g>
            </g>
        </g>
        <g id="Group-7-Copy-3" transform="translate(622.500000, 455.569573)">
            <rect id="Rectangle" fill="#FFE9B9" x="-6.16081648e-14" y="-2.15628577e-13" width="399.13794" height="399.13794"></rect>
            <polygon id="Rectangle-Copy-10" fill="#0C32BD" points="399.13794 -2.15628577e-13 399.13794 399.13794 -6.16081648e-14 399.13794"></polygon>
        </g>
        <g id="Group-9" transform="translate(595.000000, -0.500000)">
            <rect id="Rectangle-Copy-17" fill="#FFAD4B" x="0" y="0" width="684" height="684"></rect>
            <polygon id="Rectangle-Copy-18" fill="#FFE9B9" points="0 333.205714 684 0.977142857 684 351.771429 0 684"></polygon>
        </g>
        <g id="Group-5-Copy-4" transform="translate(2335.000000, 153.605469) rotate(-90.000000) translate(-2335.000000, -153.605469) translate(2217.000000, -108.894531)">
            <rect id="Rectangle" fill="#FFAD4B" x="-3.8097185e-13" y="108.804594" width="235.071654" height="306.06383"></rect>
            <circle id="Oval" fill="#0B5A82" cx="117.535827" cy="117.535827" r="117.535827"></circle>
            <circle id="Oval-Copy" fill="#FFAD4B" cx="117.535827" cy="407.402848" r="117.535827"></circle>
        </g>
        <g id="Group-2" transform="translate(812.000000, -1.000000)" fill="#00DD9B">
            <polygon id="Rectangle" style="mix-blend-mode: multiply;" points="-4.47520691e-13 0.5 471.566218 0.5 897.36455 614.5 425.798332 614.5"></polygon>
        </g>
        <g id="Group-3" transform="translate(2196.000000, 466.000000)">
            <g id="Group-17-Copy-5" transform="translate(-0.000000, 0.000000)">
                <mask id="mask-4" fill="white">
                    <use xlink:href="#path-3"></use>
                </mask>
                <use id="Mask" fill="#7D64E1" xlink:href="#path-3"></use>
                <g id="Group-17" mask="url(#mask-4)" fill="#26117C">
                    <g transform="translate(141.242223, 137.816848) rotate(-330.000000) translate(-141.242223, -137.816848) translate(-23.757777, -2.683152)">
                        <rect id="Rectangle-Copy-8" x="0.108749984" y="-2.62125111e-13" width="21.6829971" height="280.230548"></rect>
                        <rect id="Rectangle-Copy-34" x="176.210191" y="0" width="21.6829971" height="280.230548"></rect>
                        <rect id="Rectangle-Copy-28" x="88.1594704" y="0" width="21.6829971" height="280.230548"></rect>
                        <rect id="Rectangle-Copy-35" x="264.260911" y="0" width="21.6829971" height="280.230548"></rect>
                        <rect id="Rectangle-Copy-25" x="44.1341102" y="-2.62125111e-13" width="21.6829971" height="280.230548"></rect>
                        <rect id="Rectangle-Copy-36" x="220.235551" y="0" width="21.6829971" height="280.230548"></rect>
                        <rect id="Rectangle-Copy-29" x="132.184831" y="0" width="21.6829971" height="280.230548"></rect>
                        <rect id="Rectangle-Copy-37" x="308.286272" y="0" width="21.6829971" height="280.230548"></rect>
                    </g>
                </g>
            </g>
            <g id="Group-Copy-3" transform="translate(198.000000, 132.000000) rotate(-180.000000) translate(-198.000000, -132.000000) translate(132.000000, 0.000000)" fill="#7D64E1">
                <path d="M0.000432543571,1.13686838e-13 C72.9020195,1.13686838e-13 132.000433,59.098413 132.000433,132 C132.000433,204.901587 72.9020195,264 0.000432543571,264 L0.000432543571,264 Z" id="Combined-Shape-Copy-3" transform="translate(66.000433, 132.000000) rotate(-180.000000) translate(-66.000433, -132.000000) "></path>
            </g>
            <circle id="Oval-Copy" fill="#7D64E1" cx="396.259181" cy="132" r="132"></circle>
            <g id="Group-Copy-4" transform="translate(528.259181, 0.000000)" fill="#7D64E1">
                <path d="M0.000432543571,0 C72.9020195,0 132.000433,59.098413 132.000433,132 C132.000433,204.901587 72.9020195,264 0.000432543571,264 L0.000432543571,264 Z" id="Combined-Shape-Copy-3" transform="translate(66.000433, 132.000000) rotate(-180.000000) translate(-66.000433, -132.000000) "></path>
            </g>
        </g>
        <path d="M1127,250.5 C1176.75533,250.5 1217.18421,290.43132 1217.98781,339.995149 L1218,341.5 L1036,341.5 C1036,291.242088 1076.74209,250.5 1127,250.5 Z" id="Path-Copy" fill="#45806E"></path>
        <path d="M1673,250.5 C1722.75533,250.5 1763.18421,290.43132 1763.98781,339.995149 L1764,341.5 L1582,341.5 C1582,291.242088 1622.74209,250.5 1673,250.5 Z" id="Path-Copy-3" fill="#45806E"></path>
        <path d="M1309,250.5 C1358.75533,250.5 1399.18421,290.43132 1399.98781,339.995149 L1400,341.5 L1218,341.5 C1218,291.242088 1258.74209,250.5 1309,250.5 Z" id="Path-Copy-6" fill="#45806E"></path>
        <path d="M1855,250.5 C1904.75533,250.5 1945.18421,290.43132 1945.98781,339.995149 L1946,341.5 L1764,341.5 C1764,291.242088 1804.74209,250.5 1855,250.5 Z" id="Path-Copy-12" fill="#45806E"></path>
        <path d="M945,250.5 C994.755333,250.5 1035.18421,290.43132 1035.98781,339.995149 L1036,341.5 L854,341.5 C854,291.242088 894.742088,250.5 945,250.5 Z" id="Path-Copy-2" fill="#45806E"></path>
        <path d="M1491,250.5 C1540.75533,250.5 1581.18421,290.43132 1581.98781,339.995149 L1582,341.5 L1400,341.5 C1400,291.242088 1440.74209,250.5 1491,250.5 Z" id="Path-Copy-4" fill="#45806E"></path>
        <polygon id="Path-2" fill="#FFE3A4" points="458.974609 422.294922 469.986328 439.84375 500.507813 480.12276 622.5 613.605469 622.5 521.564453"></polygon>
        <rect id="Rectangle-Copy-7" fill="#7D64E1" x="0" y="512.5" width="3000" height="171"></rect>
        <polygon id="Rectangle-Copy-39" fill="#9AEAEC" points="1500 512.5 3100 512.5 3000 683.5 1400 683.5"></polygon>
        <polygon id="Triangle-Copy-6" fill="#26117C" transform="translate(2589.549555, 379.000000) rotate(-180.000000) translate(-2589.549555, -379.000000) " points="2589.54955 170.5 2844.09911 587.5 2335 587.5"></polygon>
        <polygon id="Triangle-Copy-6" fill="#0B5A82" style="mix-blend-mode: multiply;" points="2676.36083 170.5 2931.19417 587.5 2421.5275 587.5"></polygon>
        <polygon id="Rectangle-Copy-21" fill="#FFD26E" points="1775.95465 512.5 2051.90931 681.056086 2051.90931 966.955052 1775.95465 798.398966"></polygon>
        <polygon id="Rectangle-Copy-20" fill="#DF003D" transform="translate(1637.977327, 910.272474) scale(-1, 1) translate(-1637.977327, -910.272474) " points="1500 683.044948 1775.95465 851.601034 1775.95465 1137.5 1500 968.943914"></polygon>
        <polygon id="Rectangle-Copy-22" fill="#F20C78" transform="translate(1913.931981, 910.272474) scale(-1, 1) translate(-1913.931981, -910.272474) " points="1775.95465 683.044948 2051.90931 851.601034 2051.90931 1137.5 1775.95465 968.943914"></polygon>
        <polygon id="Rectangle-Copy-19" fill="#FFDF00" points="1501.02124 512.5 1776.9759 681.056086 1776.9759 966.955052 1501.02124 798.398966"></polygon>
        <g id="Group-18" transform="translate(276.500000, 548.132812)" stroke="#26117C" stroke-width="350">
            <path d="M2.84217094e-13,203.325702 C2.84217094e-13,315.619386 91.0320175,406.651404 203.325702,406.651404 C315.619386,406.651404 406.651404,315.619386 406.651404,203.325702" id="Path"></path>
            <path d="M813.302807,203.325702 C813.302807,315.619386 904.334825,406.651404 1016.62851,406.651404 C1128.92219,406.651404 1219.95421,315.619386 1219.95421,203.325702" id="Path"></path>
            <path d="M813.302807,203.325702 C813.302807,91.0320175 722.27079,2.84217094e-14 609.977105,2.84217094e-14 C497.683421,2.84217094e-14 406.651404,91.0320175 406.651404,203.325702" id="Path"></path>
            <path d="M1626.60561,203.325702 C1626.60561,91.0320175 1535.5736,2.84217094e-14 1423.27991,2.84217094e-14 C1310.98623,2.84217094e-14 1219.95421,91.0320175 1219.95421,203.325702" id="Path"></path>
        </g>
        <path d="M2432.02308,854.46742 L2428.00159,854.5 C2428.00126,854.5 2428.00093,854.5 2428.00059,854.5 L2428,611.317406 L2671.18519,611.317408 C2671.18519,611.317241 2671.18519,611.317074 2671.18519,611.316907 C2671.18519,744.279931 2564.47484,852.319917 2432.02308,854.46742 Z" id="Combined-Shape" fill="#FF1E56"></path>
        <path d="M2688.01102,854.5 L2688.01002,854.5 L2688.00998,542.501 L3000.01102,542.501002 C3000.01102,542.500835 3000.01102,542.500668 3000.01102,542.500501 C3000.01102,714.812842 2860.32387,854.5 2688.01102,854.5 Z" id="Combined-Shape-Copy-5" fill="#FFDF00"></path>
        <path d="M15.0903657,683.5 C15.0900316,683.5 15.0896976,683.5 15.0893635,683.5 L15.0884847,396.501 L302.090366,396.501002 C302.090366,396.500835 302.090366,396.500668 302.090366,396.500501 C302.090366,555.005723 173.596089,683.5 15.0903657,683.5 Z" id="Combined-Shape-Copy-4" fill="#9AEAEC" transform="translate(158.589425, 540.000000) rotate(-180.000000) translate(-158.589425, -540.000000) "></path>
        <g id="Group-13" transform="translate(0.000000, -0.500000)">
            <polygon id="Triangle-Copy-5" fill="#A5F8F5" transform="translate(140.594535, 171.497261) rotate(-270.000000) translate(-140.594535, -171.497261) " points="140.595432 31.1790788 312.095432 311.815442 -30.9045683 311.815442"></polygon>
            <polygon id="Triangle-Copy-6" fill="#0C32BD" transform="translate(73.241807, 89.177261) rotate(-270.000000) translate(-73.241807, -89.177261) " points="73.2427044 16.2118061 162.422704 162.142715 -15.9372956 162.142715"></polygon>
        </g>
        <circle id="Oval-Copy-2" fill="#9AEAEC" cx="2368.18359" cy="1015.16166" r="243.183594"></circle>
        <path d="M2368.18359,771.978066 C2502.49018,771.978066 2611.36719,880.85507 2611.36719,1015.16166 C2611.36719,1149.46825 2502.49018,1258.34525 2368.18359,1258.34525 C2368.18326,1258.34525 2368.18293,1258.34525 2368.18259,1258.34525 L2368.18219,771.978066 Z" id="Combined-Shape" fill="#3AB38F"></path>
    </g>
</svg>