<?xml version="1.0" encoding="utf-8"?>
<!-- Generator: Adobe Illustrator 21.1.0, SVG Export Plug-In . SVG Version: 6.00 Build 0)  -->
<svg version="1.1"
	 id="Layer_1" xmlns:cc="http://creativecommons.org/ns#" xmlns:dc="http://purl.org/dc/elements/1.1/" xmlns:inkscape="http://www.inkscape.org/namespaces/inkscape" xmlns:rdf="http://www.w3.org/1999/02/22-rdf-syntax-ns#" xmlns:sodipodi="http://sodipodi.sourceforge.net/DTD/sodipodi-0.dtd" xmlns:svg="http://www.w3.org/2000/svg"
	 xmlns="http://www.w3.org/2000/svg" xmlns:xlink="http://www.w3.org/1999/xlink" x="0px" y="0px" viewBox="0 0 37 37"
	 style="enable-background:new 0 0 37 37;" width="37px" height="37px" xml:space="preserve">
<style type="text/css">
	.st0{fill:#FFFFD3;}
	.st1{fill:#990048;}
</style>
<g>
	<circle class="st0" cx="15.5" cy="15" r="12.2"/>
	<g transform="translate(0,-952.36218)">
		<path class="st1" d="M15.3,952.8c-8.2,0-14.9,6.7-14.9,14.9c0,8.2,6.7,14.9,14.9,14.9c3.3,0,6.4-1.1,8.8-2.9l8.6,8.6
			c0.9,0.9,2.3,0.9,3.2,0c0.9-0.9,0.9-2.3,0-3.2l-8.6-8.6c1.8-2.5,2.9-5.5,2.9-8.8C30.3,959.5,23.6,952.8,15.3,952.8L15.3,952.8z
			 M15.3,957.3c5.8,0,10.4,4.6,10.4,10.4s-4.6,10.4-10.4,10.4s-10.4-4.6-10.4-10.4C4.9,961.9,9.6,957.3,15.3,957.3z"/>
	</g>
</g>
</svg>
