<?xml version="1.0" encoding="utf-8"?>
<!-- Generator: Adobe Illustrator 21.1.0, SVG Export Plug-In . SVG Version: 6.00 Build 0)  -->
<svg version="1.1" id="Layer_1" xmlns="https://www.w3.org/2000/svg" xmlns:xlink="https://www.w3.org/1999/xlink" x="0px" y="0px"
	 viewBox="0 0 1200 1200" style="enable-background:new 0 0 1200 1200;" width="1200px" height="1200px" xml:space="preserve">
<style type="text/css">
	.st0{opacity:0.2;}
</style>
<path class="st0" d="M641.5,613.2c0-0.2,0-0.2-0.2-0.4l-1.9-4.5L629,562.3l10.2-27.6c1.1-3,0.9-6.4-0.4-9.2c-1.3-3-3.8-5.1-6.8-6.2
	s-6.4-0.9-9.2,0.4s-4.9,3.6-6,6.4c-2.6-1.3-5.6-1.9-8.5-1.1c-3.2,0.8-5.8,2.6-7.5,5.5s-2.3,6-1.5,9.2l4.3,20.5l-6.6,17.9
	c-2.3-2.6-5.6-4.5-9.4-4.5c-5.6,0-10.5,3.9-11.7,9.2c-1.9-1.3-4.3-2.1-6.8-2.1c-6.8,0-12,5.5-12,12v31.2c0,24.4,4.1,35,7.1,42.7
	c1.7,4.3,3,7.5,3,12c0,1.5,1.3,2.8,2.8,2.8c1.5,0,2.8-1.3,2.8-2.8c0-5.6-1.5-9.6-3.4-14.1c-2.4-6.4-5.8-14.9-6.6-32.3
	c1.9,1.1,3.9,1.7,6.2,1.7c5.6,0,10.5-3.9,11.7-9.2c1.9,1.3,4.3,2.1,6.8,2.1c6.8,0,12-5.5,12-12v-16c3.4,4.9,9.2,7.5,14.5,9.8l4.1,13
	c-14.1,2.8-19.9,21.2-20.1,22c-0.4,1.5,0.4,3,1.9,3.6c1.5,0.4,3-0.4,3.6-1.9c0-0.2,5.6-18.4,18.4-18.4c0.9,0,1.7-0.4,2.3-1.1
	c0.6-0.8,0.8-1.7,0.4-2.4l-5.6-17.5c-0.2-0.8-0.8-1.5-1.5-1.7c-11.7-5.1-17.1-8.6-14.1-19l7.7,3l0,0l10.2,4.1
	c2.6,1.1,4.7,2.6,6.4,5.3l8.3,18c0.9,3.2,0.9,4.5,0.9,8.3v0.4c-0.4,19.9-5.1,30.5-8.8,38.9c-2.4,5.5-4.5,10.2-4.5,15.8
	c0,1.5,1.3,2.8,2.8,2.8c1.5,0,2.8-1.3,2.8-2.8c0-4.5,1.7-8.3,3.9-13.5c3.8-8.5,8.8-19.9,9.6-41.2v-0.6
	C642.8,619.3,642.8,617.4,641.5,613.2z M624.9,524.7c1.5-0.8,3.4-0.8,4.9-0.2c1.7,0.6,3,1.7,3.6,3.4c0.6,1.7,0.8,3.4,0.2,4.9
	l-7.1,19.4l-4.1-18.2c-0.4-1.3-0.9-2.6-1.7-3.8l0.6-1.7C622.1,526.6,623.4,525.5,624.9,524.7z M575.7,621.7c0,3.6-2.8,6.4-6.4,6.4
	c-3.4,0-6.2-2.6-6.4-5.8v-0.6c0-0.2,0-0.4,0-0.6v-28.4c0-3.6,2.8-6.4,6.4-6.4c3.6,0,6.4,2.8,6.4,6.4v21.8V621.7z M594.3,614.6
	c0,3.6-2.8,6.4-6.4,6.4c-3.6,0-6.4-2.8-6.4-6.4v-21.8v-7.1c0-3.6,2.8-6.4,6.4-6.4c3.6,0,6.4,2.8,6.4,6.4V614.6z M602.9,578.3l3-8.3
	l2.4,10.3L602.9,578.3z M623.6,586.6l-8.8-3.6L604.4,538c-0.4-1.7-0.2-3.4,0.8-4.9c0.9-1.5,2.4-2.4,3.9-2.8c1.7-0.4,3.4-0.2,4.9,0.8
	c1.5,0.9,2.4,2.4,2.8,3.9l12.4,55.3C627.7,588.6,625.9,587.5,623.6,586.6z"/>
</svg>
