<?xml version="1.0" encoding="UTF-8"?>
<svg width="530px" height="529px" viewBox="0 0 530 529" version="1.1" xmlns="http://www.w3.org/2000/svg" xmlns:xlink="http://www.w3.org/1999/xlink">
    <title>in-rotation</title>
    <g id="Page-1" stroke="none" stroke-width="1" fill="none" fill-rule="evenodd">
        <g id="spotify-covers-outlined" transform="translate(-1263.000000, -87.000000)">
            <g id="in-rotation" transform="translate(1263.500000, 87.000000)">
                <rect id="Rectangle" fill="#A9DD00" x="0" y="0" width="529" height="529"></rect>
                <path d="M120.8,157 L120.8,128.2 L91.2,128.2 L91.2,55.8 L120.8,55.8 L120.8,27 L27.2,27 L27.2,55.8 L56.8,55.8 L56.8,128.2 L27.2,128.2 L27.2,157 L120.8,157 Z M180.8,157 L180.8,119.4 C180.8,111.4 180.2,103 179,94.2 C177.8,85.4 176.8,77.2666667 176,69.8 L176,69.8 L176.8,69.8 L187.4,98.8 L209.2,157 L244,157 L244,27 L211.2,27 L211.2,64.6 C211.2,68.6 211.366667,72.7666667 211.7,77.1 C212.033333,81.4333333 212.466667,85.7666667 213,90.1 C213.533333,94.4333333 214.066667,98.6666667 214.6,102.8 C215.133333,106.933333 215.6,110.733333 216,114.2 L216,114.2 L215.2,114.2 L204.6,85 L182.8,27 L148,27 L148,157 L180.8,157 Z M60,327 L60,283.4 L72.4,283.4 L94.8,327 L133.2,327 L105,276.6 C111.4,273.133333 116.5,268.333333 120.3,262.2 C124.1,256.066667 126,248.333333 126,239 C126,230.866667 124.6,224.1 121.8,218.7 C119,213.3 115.233333,209 110.5,205.8 C105.766667,202.6 100.233333,200.333333 93.9,199 C87.5666667,197.666667 80.9333333,197 74,197 L74,197 L25.6,197 L25.6,327 L60,327 Z M71.6,256.2 L60,256.2 L60,224.2 L71.6,224.2 C78.4,224.2 83.5666667,225.266667 87.1,227.4 C90.6333333,229.533333 92.4,233.4 92.4,239 C92.4,250.466667 85.4666667,256.2 71.6,256.2 L71.6,256.2 Z M196,329.4 C203.866667,329.4 211.066667,327.866667 217.6,324.8 C224.133333,321.733333 229.733333,317.3 234.4,311.5 C239.066667,305.7 242.7,298.566667 245.3,290.1 C247.9,281.633333 249.2,272.066667 249.2,261.4 C249.2,250.733333 247.9,241.266667 245.3,233 C242.7,224.733333 239.066667,217.733333 234.4,212 C229.733333,206.266667 224.133333,201.933333 217.6,199 C211.066667,196.066667 203.866667,194.6 196,194.6 C188.133333,194.6 180.933333,196.066667 174.4,199 C167.866667,201.933333 162.266667,206.233333 157.6,211.9 C152.933333,217.566667 149.3,224.566667 146.7,232.9 C144.1,241.233333 142.8,250.733333 142.8,261.4 C142.8,272.066667 144.1,281.633333 146.7,290.1 C149.3,298.566667 152.933333,305.7 157.6,311.5 C162.266667,317.3 167.866667,321.733333 174.4,324.8 C180.933333,327.866667 188.133333,329.4 196,329.4 Z M196,299.8 C190.4,299.8 186,296.366667 182.8,289.5 C179.6,282.633333 178,273.266667 178,261.4 C178,249.533333 179.6,240.366667 182.8,233.9 C186,227.433333 190.4,224.2 196,224.2 C201.6,224.2 206,227.433333 209.2,233.9 C212.4,240.366667 214,249.533333 214,261.4 C214,273.266667 212.4,282.633333 209.2,289.5 C206,296.366667 201.6,299.8 196,299.8 Z M335.2,327 L335.2,225.8 L372.6,225.8 L372.6,197 L263.4,197 L263.4,225.8 L300.8,225.8 L300.8,327 L335.2,327 Z M415.2,327 L421.6,299.4 L457.2,299.4 L463.6,327 L500,327 L460.8,197 L419.2,197 L380,327 L415.2,327 Z M451,272.8 L427.8,272.8 L429.8,263.8 C431.266667,257.533333 432.766667,250.766667 434.3,243.5 C435.833333,236.233333 437.333333,229.266667 438.8,222.6 L438.8,222.6 L439.6,222.6 C441.2,229.133333 442.8,236.066667 444.4,243.4 C446,250.733333 447.533333,257.533333 449,263.8 L449,263.8 L451,272.8 Z M91.2,497 L91.2,395.8 L128.6,395.8 L128.6,367 L19.4,367 L19.4,395.8 L56.8,395.8 L56.8,497 L91.2,497 Z M242.8,497 L242.8,468.2 L213.2,468.2 L213.2,395.8 L242.8,395.8 L242.8,367 L149.2,367 L149.2,395.8 L178.8,395.8 L178.8,468.2 L149.2,468.2 L149.2,497 L242.8,497 Z M318,499.4 C325.866667,499.4 333.066667,497.866667 339.6,494.8 C346.133333,491.733333 351.733333,487.3 356.4,481.5 C361.066667,475.7 364.7,468.566667 367.3,460.1 C369.9,451.633333 371.2,442.066667 371.2,431.4 C371.2,420.733333 369.9,411.266667 367.3,403 C364.7,394.733333 361.066667,387.733333 356.4,382 C351.733333,376.266667 346.133333,371.933333 339.6,369 C333.066667,366.066667 325.866667,364.6 318,364.6 C310.133333,364.6 302.933333,366.066667 296.4,369 C289.866667,371.933333 284.266667,376.233333 279.6,381.9 C274.933333,387.566667 271.3,394.566667 268.7,402.9 C266.1,411.233333 264.8,420.733333 264.8,431.4 C264.8,442.066667 266.1,451.633333 268.7,460.1 C271.3,468.566667 274.933333,475.7 279.6,481.5 C284.266667,487.3 289.866667,491.733333 296.4,494.8 C302.933333,497.866667 310.133333,499.4 318,499.4 Z M318,469.8 C312.4,469.8 308,466.366667 304.8,459.5 C301.6,452.633333 300,443.266667 300,431.4 C300,419.533333 301.6,410.366667 304.8,403.9 C308,397.433333 312.4,394.2 318,394.2 C323.6,394.2 328,397.433333 331.2,403.9 C334.4,410.366667 336,419.533333 336,431.4 C336,443.266667 334.4,452.633333 331.2,459.5 C328,466.366667 323.6,469.8 318,469.8 Z M424.8,497 L424.8,459.4 C424.8,451.4 424.2,443 423,434.2 C421.8,425.4 420.8,417.266667 420,409.8 L420,409.8 L420.8,409.8 L431.4,438.8 L453.2,497 L488,497 L488,367 L455.2,367 L455.2,404.6 C455.2,408.6 455.366667,412.766667 455.7,417.1 C456.033333,421.433333 456.466667,425.766667 457,430.1 C457.533333,434.433333 458.066667,438.666667 458.6,442.8 C459.133333,446.933333 459.6,450.733333 460,454.2 L460,454.2 L459.2,454.2 L448.6,425 L426.8,367 L392,367 L392,497 L424.8,497 Z" id="INROTATION" fill="#FFFFFF" fill-rule="nonzero"></path>
            </g>
        </g>
    </g>
</svg>