<?xml version="1.0" encoding="UTF-8"?>
<svg width="530px" height="529px" viewBox="0 0 530 529" version="1.1" xmlns="http://www.w3.org/2000/svg" xmlns:xlink="http://www.w3.org/1999/xlink">
    <title>john-prine</title>
    <g id="Page-1" stroke="none" stroke-width="1" fill="none" fill-rule="evenodd">
        <g id="spotify-covers-outlined" transform="translate(-1263.000000, -1284.000000)">
            <g id="john-prine" transform="translate(1263.500000, 1284.000000)">
                <rect id="Rectangle" fill="#BBA114" x="0" y="0" width="529" height="529"></rect>
                <path d="M68.4,159.4 C77.7333333,159.4 85.6333333,158.133333 92.1,155.6 C98.5666667,153.066667 103.8,149.633333 107.8,145.3 C111.8,140.966667 114.666667,135.933333 116.4,130.2 C118.133333,124.466667 119,118.333333 119,111.8 L119,111.8 L119,27 L35.2,27 L35.2,55.8 L84.6,55.8 L84.6,109 C84.6,113.133333 84.2333333,116.533333 83.5,119.2 C82.7666667,121.866667 81.6333333,124 80.1,125.6 C78.5666667,127.2 76.7333333,128.3 74.6,128.9 C72.4666667,129.5 70,129.8 67.2,129.8 C63.2,129.8 59.2,128.666667 55.2,126.4 C51.2,124.133333 47.3333333,120.866667 43.6,116.6 L43.6,116.6 L24.2,138 C27.2666667,142 30.6,145.366667 34.2,148.1 C37.8,150.833333 41.5333333,153.033333 45.4,154.7 C49.2666667,156.366667 53.1666667,157.566667 57.1,158.3 C61.0333333,159.033333 64.8,159.4 68.4,159.4 Z M196,159.4 C203.866667,159.4 211.066667,157.866667 217.6,154.8 C224.133333,151.733333 229.733333,147.3 234.4,141.5 C239.066667,135.7 242.7,128.566667 245.3,120.1 C247.9,111.633333 249.2,102.066667 249.2,91.4 C249.2,80.7333333 247.9,71.2666667 245.3,63 C242.7,54.7333333 239.066667,47.7333333 234.4,42 C229.733333,36.2666667 224.133333,31.9333333 217.6,29 C211.066667,26.0666667 203.866667,24.6 196,24.6 C188.133333,24.6 180.933333,26.0666667 174.4,29 C167.866667,31.9333333 162.266667,36.2333333 157.6,41.9 C152.933333,47.5666667 149.3,54.5666667 146.7,62.9 C144.1,71.2333333 142.8,80.7333333 142.8,91.4 C142.8,102.066667 144.1,111.633333 146.7,120.1 C149.3,128.566667 152.933333,135.7 157.6,141.5 C162.266667,147.3 167.866667,151.733333 174.4,154.8 C180.933333,157.866667 188.133333,159.4 196,159.4 Z M196,129.8 C190.4,129.8 186,126.366667 182.8,119.5 C179.6,112.633333 178,103.266667 178,91.4 C178,79.5333333 179.6,70.3666667 182.8,63.9 C186,57.4333333 190.4,54.2 196,54.2 C201.6,54.2 206,57.4333333 209.2,63.9 C212.4,70.3666667 214,79.5333333 214,91.4 C214,103.266667 212.4,112.633333 209.2,119.5 C206,126.366667 201.6,129.8 196,129.8 Z M304,157 L304,105.4 L332,105.4 L332,157 L366.4,157 L366.4,27 L332,27 L332,75.4 L304,75.4 L304,27 L269.6,27 L269.6,157 L304,157 Z M424.8,157 L424.8,119.4 C424.8,111.4 424.2,103 423,94.2 C421.8,85.4 420.8,77.2666667 420,69.8 L420,69.8 L420.8,69.8 L431.4,98.8 L453.2,157 L488,157 L488,27 L455.2,27 L455.2,64.6 C455.2,68.6 455.366667,72.7666667 455.7,77.1 C456.033333,81.4333333 456.466667,85.7666667 457,90.1 C457.533333,94.4333333 458.066667,98.6666667 458.6,102.8 C459.133333,106.933333 459.6,110.733333 460,114.2 L460,114.2 L459.2,114.2 L448.6,85 L426.8,27 L392,27 L392,157 L424.8,157 Z M61,327 L61,285.8 L77,285.8 C83.8,285.8 90.3333333,284.9 96.6,283.1 C102.866667,281.3 108.4,278.566667 113.2,274.9 C118,271.233333 121.833333,266.533333 124.7,260.8 C127.566667,255.066667 129,248.2 129,240.2 C129,232.066667 127.6,225.233333 124.8,219.7 C122,214.166667 118.233333,209.7 113.5,206.3 C108.766667,202.9 103.233333,200.5 96.9,199.1 C90.5666667,197.7 83.9333333,197 77,197 L77,197 L26.6,197 L26.6,327 L61,327 Z M75.4,258.6 L61,258.6 L61,224.2 L75.4,224.2 C81.8,224.2 86.7333333,225.4 90.2,227.8 C93.6666667,230.2 95.4,234.333333 95.4,240.2 C95.4,246.066667 93.7666667,250.6 90.5,253.8 C87.2333333,257 82.2,258.6 75.4,258.6 L75.4,258.6 Z M182,327 L182,283.4 L194.4,283.4 L216.8,327 L255.2,327 L227,276.6 C233.4,273.133333 238.5,268.333333 242.3,262.2 C246.1,256.066667 248,248.333333 248,239 C248,230.866667 246.6,224.1 243.8,218.7 C241,213.3 237.233333,209 232.5,205.8 C227.766667,202.6 222.233333,200.333333 215.9,199 C209.566667,197.666667 202.933333,197 196,197 L196,197 L147.6,197 L147.6,327 L182,327 Z M193.6,256.2 L182,256.2 L182,224.2 L193.6,224.2 C200.4,224.2 205.566667,225.266667 209.1,227.4 C212.633333,229.533333 214.4,233.4 214.4,239 C214.4,250.466667 207.466667,256.2 193.6,256.2 L193.6,256.2 Z M364.8,327 L364.8,298.2 L335.2,298.2 L335.2,225.8 L364.8,225.8 L364.8,197 L271.2,197 L271.2,225.8 L300.8,225.8 L300.8,298.2 L271.2,298.2 L271.2,327 L364.8,327 Z M58.8,497 L58.8,459.4 C58.8,451.4 58.2,443 57,434.2 C55.8,425.4 54.8,417.266667 54,409.8 L54,409.8 L54.8,409.8 L65.4,438.8 L87.2,497 L122,497 L122,367 L89.2,367 L89.2,404.6 C89.2,408.6 89.3666667,412.766667 89.7,417.1 C90.0333333,421.433333 90.4666667,425.766667 91,430.1 C91.5333333,434.433333 92.0666667,438.666667 92.6,442.8 C93.1333333,446.933333 93.6,450.733333 94,454.2 L94,454.2 L93.2,454.2 L82.6,425 L60.8,367 L26,367 L26,497 L58.8,497 Z M243.2,497 L243.2,468.2 L187.6,468.2 L187.6,445 L233.2,445 L233.2,416.2 L187.6,416.2 L187.6,395.8 L241.2,395.8 L241.2,367 L153.2,367 L153.2,497 L243.2,497 Z" id="JOHNPRINE" fill="#FFFFFF" fill-rule="nonzero"></path>
            </g>
        </g>
    </g>
</svg>