<?xml version="1.0" encoding="UTF-8"?>
<svg width="529px" height="529px" viewBox="0 0 529 529" version="1.1" xmlns="http://www.w3.org/2000/svg" xmlns:xlink="http://www.w3.org/1999/xlink">
    <title>sea-shanties-folk</title>
    <g id="Page-1" stroke="none" stroke-width="1" fill="none" fill-rule="evenodd">
        <g id="spotify-covers-outlined" transform="translate(-1895.000000, -1881.000000)">
            <g id="sea-shanties-folk" transform="translate(1895.000000, 1881.000000)">
                <rect id="Rectangle" fill="#081565" x="0" y="0" width="529" height="529"></rect>
                <path d="M73.2,329.4 C81.6,329.4 89.0333333,328.266667 95.5,326 C101.966667,323.733333 107.4,320.7 111.8,316.9 C116.2,313.1 119.533333,308.666667 121.8,303.6 C124.066667,298.533333 125.2,293.266667 125.2,287.8 C125.2,278.733333 122.833333,271.333333 118.1,265.6 C113.366667,259.866667 106.6,255.4 97.8,252.2 L97.8,252.2 L82.8,246 C76.2666667,243.6 71.2333333,241.6 67.7,240 C64.1666667,238.4 62.4,236.066667 62.4,233 C62.4,227.133333 67.3333333,224.2 77.2,224.2 C82.4,224.2 87.0666667,225 91.2,226.6 C95.3333333,228.2 99.7333333,230.533333 104.4,233.6 L104.4,233.6 L121.6,212 C115.2,206 108.133333,201.6 100.4,198.8 C92.6666667,196 84.9333333,194.6 77.2,194.6 C69.7333333,194.6 62.9666667,195.666667 56.9,197.8 C50.8333333,199.933333 45.6333333,202.833333 41.3,206.5 C36.9666667,210.166667 33.6,214.433333 31.2,219.3 C28.8,224.166667 27.6,229.4 27.6,235 C27.6,239.666667 28.3333333,243.933333 29.8,247.8 C31.2666667,251.666667 33.2333333,255.1 35.7,258.1 C38.1666667,261.1 41.0666667,263.7 44.4,265.9 C47.7333333,268.1 51.2666667,269.866667 55,271.2 L55,271.2 L71.2,278 C74.2666667,279.066667 76.9666667,280.033333 79.3,280.9 C81.6333333,281.766667 83.6,282.666667 85.2,283.6 C86.8,284.533333 88,285.533333 88.8,286.6 C89.6,287.666667 90,289 90,290.6 C90,293.533333 88.8333333,295.8 86.5,297.4 C84.1666667,299 80,299.8 74,299.8 C68.9333333,299.8 63.6333333,298.633333 58.1,296.3 C52.5666667,293.966667 47.3333333,290.933333 42.4,287.2 L42.4,287.2 L22.8,310.8 C30.1333333,317.2 38.2333333,321.9 47.1,324.9 C55.9666667,327.9 64.6666667,329.4 73.2,329.4 Z M243.2,327 L243.2,298.2 L187.6,298.2 L187.6,275 L233.2,275 L233.2,246.2 L187.6,246.2 L187.6,225.8 L241.2,225.8 L241.2,197 L153.2,197 L153.2,327 L243.2,327 Z M293.2,327 L299.6,299.4 L335.2,299.4 L341.6,327 L378,327 L338.8,197 L297.2,197 L258,327 L293.2,327 Z M329,272.8 L305.8,272.8 L307.8,263.8 C309.266667,257.533333 310.766667,250.766667 312.3,243.5 C313.833333,236.233333 315.333333,229.266667 316.8,222.6 L316.8,222.6 L317.6,222.6 C319.2,229.133333 320.8,236.066667 322.4,243.4 C324,250.733333 325.533333,257.533333 327,263.8 L327,263.8 L329,272.8 Z M421.2,359 L487.2,185 L458.8,185 L392.8,359 L421.2,359 Z M68,497 L68,449.4 L114,449.4 L114,420.6 L68,420.6 L68,395.8 L121.8,395.8 L121.8,367 L33.6,367 L33.6,497 L68,497 Z M196,499.4 C203.866667,499.4 211.066667,497.866667 217.6,494.8 C224.133333,491.733333 229.733333,487.3 234.4,481.5 C239.066667,475.7 242.7,468.566667 245.3,460.1 C247.9,451.633333 249.2,442.066667 249.2,431.4 C249.2,420.733333 247.9,411.266667 245.3,403 C242.7,394.733333 239.066667,387.733333 234.4,382 C229.733333,376.266667 224.133333,371.933333 217.6,369 C211.066667,366.066667 203.866667,364.6 196,364.6 C188.133333,364.6 180.933333,366.066667 174.4,369 C167.866667,371.933333 162.266667,376.233333 157.6,381.9 C152.933333,387.566667 149.3,394.566667 146.7,402.9 C144.1,411.233333 142.8,420.733333 142.8,431.4 C142.8,442.066667 144.1,451.633333 146.7,460.1 C149.3,468.566667 152.933333,475.7 157.6,481.5 C162.266667,487.3 167.866667,491.733333 174.4,494.8 C180.933333,497.866667 188.133333,499.4 196,499.4 Z M196,469.8 C190.4,469.8 186,466.366667 182.8,459.5 C179.6,452.633333 178,443.266667 178,431.4 C178,419.533333 179.6,410.366667 182.8,403.9 C186,397.433333 190.4,394.2 196,394.2 C201.6,394.2 206,397.433333 209.2,403.9 C212.4,410.366667 214,419.533333 214,431.4 C214,443.266667 212.4,452.633333 209.2,459.5 C206,466.366667 201.6,469.8 196,469.8 Z M367,497 L367,468.2 L311.6,468.2 L311.6,367 L277.2,367 L277.2,497 L367,497 Z M426,497 L426,464.6 L438.4,447 L462,497 L499.8,497 L458.4,419.8 L496.6,367 L458.8,367 L426.8,415.4 L426,415.4 L426,367 L391.4,367 L391.4,497 L426,497 Z" id="SEA/FOLK" fill="#FFFFFF" fill-rule="nonzero"></path>
            </g>
        </g>
    </g>
</svg>