<?xml version="1.0" encoding="UTF-8"?>
<svg width="530px" height="529px" viewBox="0 0 530 529" version="1.1" xmlns="http://www.w3.org/2000/svg" xmlns:xlink="http://www.w3.org/1999/xlink">
    <title>dinner</title>
    <g id="Page-1" stroke="none" stroke-width="1" fill="none" fill-rule="evenodd">
        <g id="spotify-covers-outlined" transform="translate(-1263.000000, -684.000000)">
            <g id="dinner" transform="translate(1263.500000, 684.000000)">
                <rect id="Rectangle" fill="#05DD7E" x="0" y="0" width="529" height="529"></rect>
                <path d="M64.2,327 C73,327 81.1333333,325.733333 88.6,323.2 C96.0666667,320.666667 102.566667,316.733333 108.1,311.4 C113.633333,306.066667 117.933333,299.266667 121,291 C124.066667,282.733333 125.6,272.866667 125.6,261.4 C125.6,249.933333 124.033333,240.133333 120.9,232 C117.766667,223.866667 113.4,217.2 107.8,212 C102.2,206.8 95.5333333,203 87.8,200.6 C80.0666667,198.2 71.5333333,197 62.2,197 L62.2,197 L25.6,197 L25.6,327 L64.2,327 Z M60.4,299.4 L60,299.4 L60,224.6 L60.4,224.6 C64.5333333,224.6 68.4333333,225.1 72.1,226.1 C75.7666667,227.1 78.9333333,228.933333 81.6,231.6 C84.2666667,234.266667 86.4,238 88,242.8 C89.6,247.6 90.4,253.8 90.4,261.4 C90.4,269 89.6,275.266667 88,280.2 C86.4,285.133333 84.2666667,289 81.6,291.8 C78.9333333,294.6 75.7666667,296.566667 72.1,297.7 C68.4333333,298.833333 64.5333333,299.4 60.4,299.4 L60.4,299.4 Z M242.8,327 L242.8,298.2 L213.2,298.2 L213.2,225.8 L242.8,225.8 L242.8,197 L149.2,197 L149.2,225.8 L178.8,225.8 L178.8,298.2 L149.2,298.2 L149.2,327 L242.8,327 Z M302.8,327 L302.8,289.4 C302.8,281.4 302.2,273 301,264.2 C299.8,255.4 298.8,247.266667 298,239.8 L298,239.8 L298.8,239.8 L309.4,268.8 L331.2,327 L366,327 L366,197 L333.2,197 L333.2,234.6 C333.2,238.6 333.366667,242.766667 333.7,247.1 C334.033333,251.433333 334.466667,255.766667 335,260.1 C335.533333,264.433333 336.066667,268.666667 336.6,272.8 C337.133333,276.933333 337.6,280.733333 338,284.2 L338,284.2 L337.2,284.2 L326.6,255 L304.8,197 L270,197 L270,327 L302.8,327 Z M424.8,327 L424.8,289.4 C424.8,281.4 424.2,273 423,264.2 C421.8,255.4 420.8,247.266667 420,239.8 L420,239.8 L420.8,239.8 L431.4,268.8 L453.2,327 L488,327 L488,197 L455.2,197 L455.2,234.6 C455.2,238.6 455.366667,242.766667 455.7,247.1 C456.033333,251.433333 456.466667,255.766667 457,260.1 C457.533333,264.433333 458.066667,268.666667 458.6,272.8 C459.133333,276.933333 459.6,280.733333 460,284.2 L460,284.2 L459.2,284.2 L448.6,255 L426.8,197 L392,197 L392,327 L424.8,327 Z M121.2,497 L121.2,468.2 L65.6,468.2 L65.6,445 L111.2,445 L111.2,416.2 L65.6,416.2 L65.6,395.8 L119.2,395.8 L119.2,367 L31.2,367 L31.2,497 L121.2,497 Z M182,497 L182,453.4 L194.4,453.4 L216.8,497 L255.2,497 L227,446.6 C233.4,443.133333 238.5,438.333333 242.3,432.2 C246.1,426.066667 248,418.333333 248,409 C248,400.866667 246.6,394.1 243.8,388.7 C241,383.3 237.233333,379 232.5,375.8 C227.766667,372.6 222.233333,370.333333 215.9,369 C209.566667,367.666667 202.933333,367 196,367 L196,367 L147.6,367 L147.6,497 L182,497 Z M193.6,426.2 L182,426.2 L182,394.2 L193.6,394.2 C200.4,394.2 205.566667,395.266667 209.1,397.4 C212.633333,399.533333 214.4,403.4 214.4,409 C214.4,420.466667 207.466667,426.2 193.6,426.2 L193.6,426.2 Z" id="DINNER" fill="#FFFFFF" fill-rule="nonzero"></path>
            </g>
        </g>
    </g>
</svg>