<?xml version="1.0" encoding="UTF-8"?>
<svg width="529px" height="529px" viewBox="0 0 529 529" version="1.1" xmlns="http://www.w3.org/2000/svg" xmlns:xlink="http://www.w3.org/1999/xlink">
    <title>classical</title>
    <g id="Page-1" stroke="none" stroke-width="1" fill="none" fill-rule="evenodd">
        <g id="spotify-covers-outlined" transform="translate(-1895.000000, -684.000000)">
            <g id="classical" transform="translate(1895.000000, 684.000000)">
                <rect id="Rectangle" fill="#4BB913" x="0" y="0" width="529" height="529"></rect>
                <path d="M87.4,159.4 C95.4,159.4 102.933333,157.8 110,154.6 C117.066667,151.4 123.4,146.6 129,140.2 L129,140.2 L110.2,119.4 C107.4,122.466667 104.3,124.966667 100.9,126.9 C97.5,128.833333 93.6666667,129.8 89.4,129.8 C80.6,129.8 73.4,126.533333 67.8,120 C62.2,113.466667 59.4,104.066667 59.4,91.8 C59.4,85.9333333 60.1333333,80.6666667 61.6,76 C63.0666667,71.3333333 65.0666667,67.4 67.6,64.2 C70.1333333,61 73.1333333,58.5333333 76.6,56.8 C80.0666667,55.0666667 83.8,54.2 87.8,54.2 C92.2,54.2 96,54.9333333 99.2,56.4 C102.4,57.8666667 105.533333,59.9333333 108.6,62.6 L108.6,62.6 L127.4,41.4 C122.733333,37 117.066667,33.1 110.4,29.7 C103.733333,26.3 96.2,24.6 87.8,24.6 C79,24.6 70.7333333,26.1333333 63,29.2 C55.2666667,32.2666667 48.5333333,36.7 42.8,42.5 C37.0666667,48.3 32.5333333,55.4333333 29.2,63.9 C25.8666667,72.3666667 24.2,82.0666667 24.2,93 C24.2,104.066667 25.9,113.766667 29.3,122.1 C32.7,130.433333 37.3,137.366667 43.1,142.9 C48.9,148.433333 55.6,152.566667 63.2,155.3 C70.8,158.033333 78.8666667,159.4 87.4,159.4 Z M245,157 L245,128.2 L189.6,128.2 L189.6,27 L155.2,27 L155.2,157 L245,157 Z M293.2,157 L299.6,129.4 L335.2,129.4 L341.6,157 L378,157 L338.8,27 L297.2,27 L258,157 L293.2,157 Z M329,102.8 L305.8,102.8 L307.8,93.8 C309.266667,87.5333333 310.766667,80.7666667 312.3,73.5 C313.833333,66.2333333 315.333333,59.2666667 316.8,52.6 L316.8,52.6 L317.6,52.6 C319.2,59.1333333 320.8,66.0666667 322.4,73.4 C324,80.7333333 325.533333,87.5333333 327,93.8 L327,93.8 L329,102.8 Z M73.2,329.4 C81.6,329.4 89.0333333,328.266667 95.5,326 C101.966667,323.733333 107.4,320.7 111.8,316.9 C116.2,313.1 119.533333,308.666667 121.8,303.6 C124.066667,298.533333 125.2,293.266667 125.2,287.8 C125.2,278.733333 122.833333,271.333333 118.1,265.6 C113.366667,259.866667 106.6,255.4 97.8,252.2 L97.8,252.2 L82.8,246 C76.2666667,243.6 71.2333333,241.6 67.7,240 C64.1666667,238.4 62.4,236.066667 62.4,233 C62.4,227.133333 67.3333333,224.2 77.2,224.2 C82.4,224.2 87.0666667,225 91.2,226.6 C95.3333333,228.2 99.7333333,230.533333 104.4,233.6 L104.4,233.6 L121.6,212 C115.2,206 108.133333,201.6 100.4,198.8 C92.6666667,196 84.9333333,194.6 77.2,194.6 C69.7333333,194.6 62.9666667,195.666667 56.9,197.8 C50.8333333,199.933333 45.6333333,202.833333 41.3,206.5 C36.9666667,210.166667 33.6,214.433333 31.2,219.3 C28.8,224.166667 27.6,229.4 27.6,235 C27.6,239.666667 28.3333333,243.933333 29.8,247.8 C31.2666667,251.666667 33.2333333,255.1 35.7,258.1 C38.1666667,261.1 41.0666667,263.7 44.4,265.9 C47.7333333,268.1 51.2666667,269.866667 55,271.2 L55,271.2 L71.2,278 C74.2666667,279.066667 76.9666667,280.033333 79.3,280.9 C81.6333333,281.766667 83.6,282.666667 85.2,283.6 C86.8,284.533333 88,285.533333 88.8,286.6 C89.6,287.666667 90,289 90,290.6 C90,293.533333 88.8333333,295.8 86.5,297.4 C84.1666667,299 80,299.8 74,299.8 C68.9333333,299.8 63.6333333,298.633333 58.1,296.3 C52.5666667,293.966667 47.3333333,290.933333 42.4,287.2 L42.4,287.2 L22.8,310.8 C30.1333333,317.2 38.2333333,321.9 47.1,324.9 C55.9666667,327.9 64.6666667,329.4 73.2,329.4 Z M195.2,329.4 C203.6,329.4 211.033333,328.266667 217.5,326 C223.966667,323.733333 229.4,320.7 233.8,316.9 C238.2,313.1 241.533333,308.666667 243.8,303.6 C246.066667,298.533333 247.2,293.266667 247.2,287.8 C247.2,278.733333 244.833333,271.333333 240.1,265.6 C235.366667,259.866667 228.6,255.4 219.8,252.2 L219.8,252.2 L204.8,246 C198.266667,243.6 193.233333,241.6 189.7,240 C186.166667,238.4 184.4,236.066667 184.4,233 C184.4,227.133333 189.333333,224.2 199.2,224.2 C204.4,224.2 209.066667,225 213.2,226.6 C217.333333,228.2 221.733333,230.533333 226.4,233.6 L226.4,233.6 L243.6,212 C237.2,206 230.133333,201.6 222.4,198.8 C214.666667,196 206.933333,194.6 199.2,194.6 C191.733333,194.6 184.966667,195.666667 178.9,197.8 C172.833333,199.933333 167.633333,202.833333 163.3,206.5 C158.966667,210.166667 155.6,214.433333 153.2,219.3 C150.8,224.166667 149.6,229.4 149.6,235 C149.6,239.666667 150.333333,243.933333 151.8,247.8 C153.266667,251.666667 155.233333,255.1 157.7,258.1 C160.166667,261.1 163.066667,263.7 166.4,265.9 C169.733333,268.1 173.266667,269.866667 177,271.2 L177,271.2 L193.2,278 C196.266667,279.066667 198.966667,280.033333 201.3,280.9 C203.633333,281.766667 205.6,282.666667 207.2,283.6 C208.8,284.533333 210,285.533333 210.8,286.6 C211.6,287.666667 212,289 212,290.6 C212,293.533333 210.833333,295.8 208.5,297.4 C206.166667,299 202,299.8 196,299.8 C190.933333,299.8 185.633333,298.633333 180.1,296.3 C174.566667,293.966667 169.333333,290.933333 164.4,287.2 L164.4,287.2 L144.8,310.8 C152.133333,317.2 160.233333,321.9 169.1,324.9 C177.966667,327.9 186.666667,329.4 195.2,329.4 Z M364.8,327 L364.8,298.2 L335.2,298.2 L335.2,225.8 L364.8,225.8 L364.8,197 L271.2,197 L271.2,225.8 L300.8,225.8 L300.8,298.2 L271.2,298.2 L271.2,327 L364.8,327 Z M87.4,499.4 C95.4,499.4 102.933333,497.8 110,494.6 C117.066667,491.4 123.4,486.6 129,480.2 L129,480.2 L110.2,459.4 C107.4,462.466667 104.3,464.966667 100.9,466.9 C97.5,468.833333 93.6666667,469.8 89.4,469.8 C80.6,469.8 73.4,466.533333 67.8,460 C62.2,453.466667 59.4,444.066667 59.4,431.8 C59.4,425.933333 60.1333333,420.666667 61.6,416 C63.0666667,411.333333 65.0666667,407.4 67.6,404.2 C70.1333333,401 73.1333333,398.533333 76.6,396.8 C80.0666667,395.066667 83.8,394.2 87.8,394.2 C92.2,394.2 96,394.933333 99.2,396.4 C102.4,397.866667 105.533333,399.933333 108.6,402.6 L108.6,402.6 L127.4,381.4 C122.733333,377 117.066667,373.1 110.4,369.7 C103.733333,366.3 96.2,364.6 87.8,364.6 C79,364.6 70.7333333,366.133333 63,369.2 C55.2666667,372.266667 48.5333333,376.7 42.8,382.5 C37.0666667,388.3 32.5333333,395.433333 29.2,403.9 C25.8666667,412.366667 24.2,422.066667 24.2,433 C24.2,444.066667 25.9,453.766667 29.3,462.1 C32.7,470.433333 37.3,477.366667 43.1,482.9 C48.9,488.433333 55.6,492.566667 63.2,495.3 C70.8,498.033333 78.8666667,499.4 87.4,499.4 Z M171.2,497 L177.6,469.4 L213.2,469.4 L219.6,497 L256,497 L216.8,367 L175.2,367 L136,497 L171.2,497 Z M207,442.8 L183.8,442.8 L185.8,433.8 C187.266667,427.533333 188.766667,420.766667 190.3,413.5 C191.833333,406.233333 193.333333,399.266667 194.8,392.6 L194.8,392.6 L195.6,392.6 C197.2,399.133333 198.8,406.066667 200.4,413.4 C202,420.733333 203.533333,427.533333 205,433.8 L205,433.8 L207,442.8 Z M367,497 L367,468.2 L311.6,468.2 L311.6,367 L277.2,367 L277.2,497 L367,497 Z" id="CLASSICAL" fill="#FFFFFF" fill-rule="nonzero"></path>
            </g>
        </g>
    </g>
</svg>