<?xml version="1.0" encoding="UTF-8"?>
<svg width="529px" height="529px" viewBox="0 0 529 529" version="1.1" xmlns="http://www.w3.org/2000/svg" xmlns:xlink="http://www.w3.org/1999/xlink">
    <title>opera</title>
    <g id="Page-1" stroke="none" stroke-width="1" fill="none" fill-rule="evenodd">
        <g id="spotify-covers-outlined" transform="translate(-86.000000, -1881.000000)">
            <g id="opera" transform="translate(86.000000, 1881.000000)">
                <rect id="Rectangle" fill="#809BC0" x="0" y="0" width="529" height="529"></rect>
                <path d="M74,329.4 C81.8666667,329.4 89.0666667,327.866667 95.6,324.8 C102.133333,321.733333 107.733333,317.3 112.4,311.5 C117.066667,305.7 120.7,298.566667 123.3,290.1 C125.9,281.633333 127.2,272.066667 127.2,261.4 C127.2,250.733333 125.9,241.266667 123.3,233 C120.7,224.733333 117.066667,217.733333 112.4,212 C107.733333,206.266667 102.133333,201.933333 95.6,199 C89.0666667,196.066667 81.8666667,194.6 74,194.6 C66.1333333,194.6 58.9333333,196.066667 52.4,199 C45.8666667,201.933333 40.2666667,206.233333 35.6,211.9 C30.9333333,217.566667 27.3,224.566667 24.7,232.9 C22.1,241.233333 20.8,250.733333 20.8,261.4 C20.8,272.066667 22.1,281.633333 24.7,290.1 C27.3,298.566667 30.9333333,305.7 35.6,311.5 C40.2666667,317.3 45.8666667,321.733333 52.4,324.8 C58.9333333,327.866667 66.1333333,329.4 74,329.4 Z M74,299.8 C68.4,299.8 64,296.366667 60.8,289.5 C57.6,282.633333 56,273.266667 56,261.4 C56,249.533333 57.6,240.366667 60.8,233.9 C64,227.433333 68.4,224.2 74,224.2 C79.6,224.2 84,227.433333 87.2,233.9 C90.4,240.366667 92,249.533333 92,261.4 C92,273.266667 90.4,282.633333 87.2,289.5 C84,296.366667 79.6,299.8 74,299.8 Z M183,327 L183,285.8 L199,285.8 C205.8,285.8 212.333333,284.9 218.6,283.1 C224.866667,281.3 230.4,278.566667 235.2,274.9 C240,271.233333 243.833333,266.533333 246.7,260.8 C249.566667,255.066667 251,248.2 251,240.2 C251,232.066667 249.6,225.233333 246.8,219.7 C244,214.166667 240.233333,209.7 235.5,206.3 C230.766667,202.9 225.233333,200.5 218.9,199.1 C212.566667,197.7 205.933333,197 199,197 L199,197 L148.6,197 L148.6,327 L183,327 Z M197.4,258.6 L183,258.6 L183,224.2 L197.4,224.2 C203.8,224.2 208.733333,225.4 212.2,227.8 C215.666667,230.2 217.4,234.333333 217.4,240.2 C217.4,246.066667 215.766667,250.6 212.5,253.8 C209.233333,257 204.2,258.6 197.4,258.6 L197.4,258.6 Z M121.2,497 L121.2,468.2 L65.6,468.2 L65.6,445 L111.2,445 L111.2,416.2 L65.6,416.2 L65.6,395.8 L119.2,395.8 L119.2,367 L31.2,367 L31.2,497 L121.2,497 Z M182,497 L182,453.4 L194.4,453.4 L216.8,497 L255.2,497 L227,446.6 C233.4,443.133333 238.5,438.333333 242.3,432.2 C246.1,426.066667 248,418.333333 248,409 C248,400.866667 246.6,394.1 243.8,388.7 C241,383.3 237.233333,379 232.5,375.8 C227.766667,372.6 222.233333,370.333333 215.9,369 C209.566667,367.666667 202.933333,367 196,367 L196,367 L147.6,367 L147.6,497 L182,497 Z M193.6,426.2 L182,426.2 L182,394.2 L193.6,394.2 C200.4,394.2 205.566667,395.266667 209.1,397.4 C212.633333,399.533333 214.4,403.4 214.4,409 C214.4,420.466667 207.466667,426.2 193.6,426.2 L193.6,426.2 Z M293.2,497 L299.6,469.4 L335.2,469.4 L341.6,497 L378,497 L338.8,367 L297.2,367 L258,497 L293.2,497 Z M329,442.8 L305.8,442.8 L307.8,433.8 C309.266667,427.533333 310.766667,420.766667 312.3,413.5 C313.833333,406.233333 315.333333,399.266667 316.8,392.6 L316.8,392.6 L317.6,392.6 C319.2,399.133333 320.8,406.066667 322.4,413.4 C324,420.733333 325.533333,427.533333 327,433.8 L327,433.8 L329,442.8 Z" id="OPERA" fill="#FFFFFF" fill-rule="nonzero"></path>
            </g>
        </g>
    </g>
</svg>