<?xml version="1.0" encoding="UTF-8"?>
<svg width="529px" height="529px" viewBox="0 0 529 529" version="1.1" xmlns="http://www.w3.org/2000/svg" xmlns:xlink="http://www.w3.org/1999/xlink">
    <title>italian</title>
    <g id="Page-1" stroke="none" stroke-width="1" fill="none" fill-rule="evenodd">
        <g id="spotify-covers-outlined" transform="translate(-1895.000000, -1284.000000)">
            <g id="italian" transform="translate(1895.000000, 1284.000000)">
                <rect id="Rectangle" fill="#EF5600" x="0" y="0" width="529" height="529"></rect>
                <path d="M120.8,327 L120.8,298.2 L91.2,298.2 L91.2,225.8 L120.8,225.8 L120.8,197 L27.2,197 L27.2,225.8 L56.8,225.8 L56.8,298.2 L27.2,298.2 L27.2,327 L120.8,327 Z M213.2,327 L213.2,225.8 L250.6,225.8 L250.6,197 L141.4,197 L141.4,225.8 L178.8,225.8 L178.8,327 L213.2,327 Z M293.2,327 L299.6,299.4 L335.2,299.4 L341.6,327 L378,327 L338.8,197 L297.2,197 L258,327 L293.2,327 Z M329,272.8 L305.8,272.8 L307.8,263.8 C309.266667,257.533333 310.766667,250.766667 312.3,243.5 C313.833333,236.233333 315.333333,229.266667 316.8,222.6 L316.8,222.6 L317.6,222.6 C319.2,229.133333 320.8,236.066667 322.4,243.4 C324,250.733333 325.533333,257.533333 327,263.8 L327,263.8 L329,272.8 Z M123,497 L123,468.2 L67.6,468.2 L67.6,367 L33.2,367 L33.2,497 L123,497 Z M242.8,497 L242.8,468.2 L213.2,468.2 L213.2,395.8 L242.8,395.8 L242.8,367 L149.2,367 L149.2,395.8 L178.8,395.8 L178.8,468.2 L149.2,468.2 L149.2,497 L242.8,497 Z M293.2,497 L299.6,469.4 L335.2,469.4 L341.6,497 L378,497 L338.8,367 L297.2,367 L258,497 L293.2,497 Z M329,442.8 L305.8,442.8 L307.8,433.8 C309.266667,427.533333 310.766667,420.766667 312.3,413.5 C313.833333,406.233333 315.333333,399.266667 316.8,392.6 L316.8,392.6 L317.6,392.6 C319.2,399.133333 320.8,406.066667 322.4,413.4 C324,420.733333 325.533333,427.533333 327,433.8 L327,433.8 L329,442.8 Z M424.8,497 L424.8,459.4 C424.8,451.4 424.2,443 423,434.2 C421.8,425.4 420.8,417.266667 420,409.8 L420,409.8 L420.8,409.8 L431.4,438.8 L453.2,497 L488,497 L488,367 L455.2,367 L455.2,404.6 C455.2,408.6 455.366667,412.766667 455.7,417.1 C456.033333,421.433333 456.466667,425.766667 457,430.1 C457.533333,434.433333 458.066667,438.666667 458.6,442.8 C459.133333,446.933333 459.6,450.733333 460,454.2 L460,454.2 L459.2,454.2 L448.6,425 L426.8,367 L392,367 L392,497 L424.8,497 Z" id="ITALIAN" fill="#FFFFFF" fill-rule="nonzero"></path>
            </g>
        </g>
    </g>
</svg>