<?xml version="1.0" encoding="UTF-8"?>
<svg width="529px" height="529px" viewBox="0 0 529 529" version="1.1" xmlns="http://www.w3.org/2000/svg" xmlns:xlink="http://www.w3.org/1999/xlink">
    <title>archive</title>
    <g id="Page-1" stroke="none" stroke-width="1" fill="none" fill-rule="evenodd">
        <g id="spotify-covers-outlined" transform="translate(-86.000000, -1284.000000)">
            <g id="archive" transform="translate(86.000000, 1284.000000)">
                <rect id="Rectangle" fill="#46642D" x="0" y="0" width="529" height="529"></rect>
                <path d="M49.2,327 L55.6,299.4 L91.2,299.4 L97.6,327 L134,327 L94.8,197 L53.2,197 L14,327 L49.2,327 Z M85,272.8 L61.8,272.8 L63.8,263.8 C65.2666667,257.533333 66.7666667,250.766667 68.3,243.5 C69.8333333,236.233333 71.3333333,229.266667 72.8,222.6 L72.8,222.6 L73.6,222.6 C75.2,229.133333 76.8,236.066667 78.4,243.4 C80,250.733333 81.5333333,257.533333 83,263.8 L83,263.8 L85,272.8 Z M182,327 L182,283.4 L194.4,283.4 L216.8,327 L255.2,327 L227,276.6 C233.4,273.133333 238.5,268.333333 242.3,262.2 C246.1,256.066667 248,248.333333 248,239 C248,230.866667 246.6,224.1 243.8,218.7 C241,213.3 237.233333,209 232.5,205.8 C227.766667,202.6 222.233333,200.333333 215.9,199 C209.566667,197.666667 202.933333,197 196,197 L196,197 L147.6,197 L147.6,327 L182,327 Z M193.6,256.2 L182,256.2 L182,224.2 L193.6,224.2 C200.4,224.2 205.566667,225.266667 209.1,227.4 C212.633333,229.533333 214.4,233.4 214.4,239 C214.4,250.466667 207.466667,256.2 193.6,256.2 L193.6,256.2 Z M331.4,329.4 C339.4,329.4 346.933333,327.8 354,324.6 C361.066667,321.4 367.4,316.6 373,310.2 L373,310.2 L354.2,289.4 C351.4,292.466667 348.3,294.966667 344.9,296.9 C341.5,298.833333 337.666667,299.8 333.4,299.8 C324.6,299.8 317.4,296.533333 311.8,290 C306.2,283.466667 303.4,274.066667 303.4,261.8 C303.4,255.933333 304.133333,250.666667 305.6,246 C307.066667,241.333333 309.066667,237.4 311.6,234.2 C314.133333,231 317.133333,228.533333 320.6,226.8 C324.066667,225.066667 327.8,224.2 331.8,224.2 C336.2,224.2 340,224.933333 343.2,226.4 C346.4,227.866667 349.533333,229.933333 352.6,232.6 L352.6,232.6 L371.4,211.4 C366.733333,207 361.066667,203.1 354.4,199.7 C347.733333,196.3 340.2,194.6 331.8,194.6 C323,194.6 314.733333,196.133333 307,199.2 C299.266667,202.266667 292.533333,206.7 286.8,212.5 C281.066667,218.3 276.533333,225.433333 273.2,233.9 C269.866667,242.366667 268.2,252.066667 268.2,263 C268.2,274.066667 269.9,283.766667 273.3,292.1 C276.7,300.433333 281.3,307.366667 287.1,312.9 C292.9,318.433333 299.6,322.566667 307.2,325.3 C314.8,328.033333 322.866667,329.4 331.4,329.4 Z M426,327 L426,275.4 L454,275.4 L454,327 L488.4,327 L488.4,197 L454,197 L454,245.4 L426,245.4 L426,197 L391.6,197 L391.6,327 L426,327 Z M120.8,497 L120.8,468.2 L91.2,468.2 L91.2,395.8 L120.8,395.8 L120.8,367 L27.2,367 L27.2,395.8 L56.8,395.8 L56.8,468.2 L27.2,468.2 L27.2,497 L120.8,497 Z M216.8,497 L255.2,367 L220,367 L206.8,423.8 C205.066667,430.733333 203.5,437.566667 202.1,444.3 C200.7,451.033333 199.066667,457.933333 197.2,465 L197.2,465 L196.4,465 C194.533333,457.933333 192.933333,451.033333 191.6,444.3 C190.266667,437.566667 188.666667,430.733333 186.8,423.8 L186.8,423.8 L173.2,367 L136.8,367 L175.2,497 L216.8,497 Z M365.2,497 L365.2,468.2 L309.6,468.2 L309.6,445 L355.2,445 L355.2,416.2 L309.6,416.2 L309.6,395.8 L363.2,395.8 L363.2,367 L275.2,367 L275.2,497 L365.2,497 Z" id="ARCHIVE" fill="#FFFFFF" fill-rule="nonzero"></path>
            </g>
        </g>
    </g>
</svg>