<?xml version="1.0" encoding="UTF-8"?>
<svg width="529px" height="529px" viewBox="0 0 529 529" version="1.1" xmlns="http://www.w3.org/2000/svg" xmlns:xlink="http://www.w3.org/1999/xlink">
    <title>focus</title>
    <g id="Page-1" stroke="none" stroke-width="1" fill="none" fill-rule="evenodd">
        <g id="spotify-covers-outlined" transform="translate(-86.000000, -87.000000)">
            <g id="focus" transform="translate(86.000000, 87.000000)">
                <rect id="Rectangle" fill="#64429A" x="0" y="0" width="529" height="529"></rect>
                <path d="M68,327 L68,279.4 L114,279.4 L114,250.6 L68,250.6 L68,225.8 L121.8,225.8 L121.8,197 L33.6,197 L33.6,327 L68,327 Z M196,329.4 C203.866667,329.4 211.066667,327.866667 217.6,324.8 C224.133333,321.733333 229.733333,317.3 234.4,311.5 C239.066667,305.7 242.7,298.566667 245.3,290.1 C247.9,281.633333 249.2,272.066667 249.2,261.4 C249.2,250.733333 247.9,241.266667 245.3,233 C242.7,224.733333 239.066667,217.733333 234.4,212 C229.733333,206.266667 224.133333,201.933333 217.6,199 C211.066667,196.066667 203.866667,194.6 196,194.6 C188.133333,194.6 180.933333,196.066667 174.4,199 C167.866667,201.933333 162.266667,206.233333 157.6,211.9 C152.933333,217.566667 149.3,224.566667 146.7,232.9 C144.1,241.233333 142.8,250.733333 142.8,261.4 C142.8,272.066667 144.1,281.633333 146.7,290.1 C149.3,298.566667 152.933333,305.7 157.6,311.5 C162.266667,317.3 167.866667,321.733333 174.4,324.8 C180.933333,327.866667 188.133333,329.4 196,329.4 Z M196,299.8 C190.4,299.8 186,296.366667 182.8,289.5 C179.6,282.633333 178,273.266667 178,261.4 C178,249.533333 179.6,240.366667 182.8,233.9 C186,227.433333 190.4,224.2 196,224.2 C201.6,224.2 206,227.433333 209.2,233.9 C212.4,240.366667 214,249.533333 214,261.4 C214,273.266667 212.4,282.633333 209.2,289.5 C206,296.366667 201.6,299.8 196,299.8 Z M331.4,329.4 C339.4,329.4 346.933333,327.8 354,324.6 C361.066667,321.4 367.4,316.6 373,310.2 L373,310.2 L354.2,289.4 C351.4,292.466667 348.3,294.966667 344.9,296.9 C341.5,298.833333 337.666667,299.8 333.4,299.8 C324.6,299.8 317.4,296.533333 311.8,290 C306.2,283.466667 303.4,274.066667 303.4,261.8 C303.4,255.933333 304.133333,250.666667 305.6,246 C307.066667,241.333333 309.066667,237.4 311.6,234.2 C314.133333,231 317.133333,228.533333 320.6,226.8 C324.066667,225.066667 327.8,224.2 331.8,224.2 C336.2,224.2 340,224.933333 343.2,226.4 C346.4,227.866667 349.533333,229.933333 352.6,232.6 L352.6,232.6 L371.4,211.4 C366.733333,207 361.066667,203.1 354.4,199.7 C347.733333,196.3 340.2,194.6 331.8,194.6 C323,194.6 314.733333,196.133333 307,199.2 C299.266667,202.266667 292.533333,206.7 286.8,212.5 C281.066667,218.3 276.533333,225.433333 273.2,233.9 C269.866667,242.366667 268.2,252.066667 268.2,263 C268.2,274.066667 269.9,283.766667 273.3,292.1 C276.7,300.433333 281.3,307.366667 287.1,312.9 C292.9,318.433333 299.6,322.566667 307.2,325.3 C314.8,328.033333 322.866667,329.4 331.4,329.4 Z M74.4,499.4 C82.9333333,499.4 90.2333333,498.166667 96.3,495.7 C102.366667,493.233333 107.333333,489.7 111.2,485.1 C115.066667,480.5 117.9,474.966667 119.7,468.5 C121.5,462.033333 122.4,454.733333 122.4,446.6 L122.4,446.6 L122.4,367 L89.2,367 L89.2,450.6 C89.2,456.2 88.1333333,460.8 86,464.4 C83.8666667,468 80,469.8 74.4,469.8 C68.9333333,469.8 65.1666667,468 63.1,464.4 C61.0333333,460.8 60,456.2 60,450.6 L60,450.6 L60,367 L25.6,367 L25.6,446.6 C25.6,454.733333 26.5333333,462.033333 28.4,468.5 C30.2666667,474.966667 33.2,480.5 37.2,485.1 C41.2,489.7 46.2666667,493.233333 52.4,495.7 C58.5333333,498.166667 65.8666667,499.4 74.4,499.4 Z M195.2,499.4 C203.6,499.4 211.033333,498.266667 217.5,496 C223.966667,493.733333 229.4,490.7 233.8,486.9 C238.2,483.1 241.533333,478.666667 243.8,473.6 C246.066667,468.533333 247.2,463.266667 247.2,457.8 C247.2,448.733333 244.833333,441.333333 240.1,435.6 C235.366667,429.866667 228.6,425.4 219.8,422.2 L219.8,422.2 L204.8,416 C198.266667,413.6 193.233333,411.6 189.7,410 C186.166667,408.4 184.4,406.066667 184.4,403 C184.4,397.133333 189.333333,394.2 199.2,394.2 C204.4,394.2 209.066667,395 213.2,396.6 C217.333333,398.2 221.733333,400.533333 226.4,403.6 L226.4,403.6 L243.6,382 C237.2,376 230.133333,371.6 222.4,368.8 C214.666667,366 206.933333,364.6 199.2,364.6 C191.733333,364.6 184.966667,365.666667 178.9,367.8 C172.833333,369.933333 167.633333,372.833333 163.3,376.5 C158.966667,380.166667 155.6,384.433333 153.2,389.3 C150.8,394.166667 149.6,399.4 149.6,405 C149.6,409.666667 150.333333,413.933333 151.8,417.8 C153.266667,421.666667 155.233333,425.1 157.7,428.1 C160.166667,431.1 163.066667,433.7 166.4,435.9 C169.733333,438.1 173.266667,439.866667 177,441.2 L177,441.2 L193.2,448 C196.266667,449.066667 198.966667,450.033333 201.3,450.9 C203.633333,451.766667 205.6,452.666667 207.2,453.6 C208.8,454.533333 210,455.533333 210.8,456.6 C211.6,457.666667 212,459 212,460.6 C212,463.533333 210.833333,465.8 208.5,467.4 C206.166667,469 202,469.8 196,469.8 C190.933333,469.8 185.633333,468.633333 180.1,466.3 C174.566667,463.966667 169.333333,460.933333 164.4,457.2 L164.4,457.2 L144.8,480.8 C152.133333,487.2 160.233333,491.9 169.1,494.9 C177.966667,497.9 186.666667,499.4 195.2,499.4 Z" id="FOCUS" fill="#FFFFFF" fill-rule="nonzero"></path>
            </g>
        </g>
    </g>
</svg>