<?xml version="1.0" encoding="UTF-8"?>
<svg width="530px" height="529px" viewBox="0 0 530 529" version="1.1" xmlns="http://www.w3.org/2000/svg" xmlns:xlink="http://www.w3.org/1999/xlink">
    <title>wake-up</title>
    <g id="Page-1" stroke="none" stroke-width="1" fill="none" fill-rule="evenodd">
        <g id="spotify-covers-outlined" transform="translate(-1263.000000, -1881.000000)">
            <g id="wake-up" transform="translate(1263.500000, 1881.000000)">
                <rect id="Rectangle" fill="#FFF214" x="0" y="0" width="529" height="529"></rect>
                <path d="M65.4,327 L70.8,291.4 C71.4666667,287.133333 72.0666667,282.8 72.6,278.4 C73.1333333,274 73.5333333,269.866667 73.8,266 L73.8,266 L74.4,266 C74.5333333,269.866667 74.9,274 75.5,278.4 C76.1,282.8 76.7333333,287.133333 77.4,291.4 L77.4,291.4 L83.2,327 L118.8,327 L133.8,197 L101,197 L99.4,261.4 L99.4,295 L98.6,295 C97.6666667,289.133333 96.6,283.4 95.4,277.8 C94.2,272.2 93.1333333,266.733333 92.2,261.4 L92.2,261.4 L85.6,229.8 L65.6,229.8 L58.4,261.4 C57.3333333,267 56.2,272.6 55,278.2 C53.8,283.8 52.8,289.4 52,295 L52,295 L51.2,295 L51.2,261.4 L49.6,197 L14.4,197 L30.6,327 L65.4,327 Z M171.2,327 L177.6,299.4 L213.2,299.4 L219.6,327 L256,327 L216.8,197 L175.2,197 L136,327 L171.2,327 Z M207,272.8 L183.8,272.8 L185.8,263.8 C187.266667,257.533333 188.766667,250.766667 190.3,243.5 C191.833333,236.233333 193.333333,229.266667 194.8,222.6 L194.8,222.6 L195.6,222.6 C197.2,229.133333 198.8,236.066667 200.4,243.4 C202,250.733333 203.533333,257.533333 205,263.8 L205,263.8 L207,272.8 Z M304,327 L304,294.6 L316.4,277 L340,327 L377.8,327 L336.4,249.8 L374.6,197 L336.8,197 L304.8,245.4 L304,245.4 L304,197 L269.4,197 L269.4,327 L304,327 Z M487.2,327 L487.2,298.2 L431.6,298.2 L431.6,275 L477.2,275 L477.2,246.2 L431.6,246.2 L431.6,225.8 L485.2,225.8 L485.2,197 L397.2,197 L397.2,327 L487.2,327 Z M74.4,499.4 C82.9333333,499.4 90.2333333,498.166667 96.3,495.7 C102.366667,493.233333 107.333333,489.7 111.2,485.1 C115.066667,480.5 117.9,474.966667 119.7,468.5 C121.5,462.033333 122.4,454.733333 122.4,446.6 L122.4,446.6 L122.4,367 L89.2,367 L89.2,450.6 C89.2,456.2 88.1333333,460.8 86,464.4 C83.8666667,468 80,469.8 74.4,469.8 C68.9333333,469.8 65.1666667,468 63.1,464.4 C61.0333333,460.8 60,456.2 60,450.6 L60,450.6 L60,367 L25.6,367 L25.6,446.6 C25.6,454.733333 26.5333333,462.033333 28.4,468.5 C30.2666667,474.966667 33.2,480.5 37.2,485.1 C41.2,489.7 46.2666667,493.233333 52.4,495.7 C58.5333333,498.166667 65.8666667,499.4 74.4,499.4 Z M183,497 L183,455.8 L199,455.8 C205.8,455.8 212.333333,454.9 218.6,453.1 C224.866667,451.3 230.4,448.566667 235.2,444.9 C240,441.233333 243.833333,436.533333 246.7,430.8 C249.566667,425.066667 251,418.2 251,410.2 C251,402.066667 249.6,395.233333 246.8,389.7 C244,384.166667 240.233333,379.7 235.5,376.3 C230.766667,372.9 225.233333,370.5 218.9,369.1 C212.566667,367.7 205.933333,367 199,367 L199,367 L148.6,367 L148.6,497 L183,497 Z M197.4,428.6 L183,428.6 L183,394.2 L197.4,394.2 C203.8,394.2 208.733333,395.4 212.2,397.8 C215.666667,400.2 217.4,404.333333 217.4,410.2 C217.4,416.066667 215.766667,420.6 212.5,423.8 C209.233333,427 204.2,428.6 197.4,428.6 L197.4,428.6 Z" id="WAKEUP" fill="#FFFFFF" fill-rule="nonzero"></path>
            </g>
        </g>
    </g>
</svg>