<?xml version="1.0" encoding="UTF-8"?>
<svg width="530px" height="529px" viewBox="0 0 530 529" version="1.1" xmlns="http://www.w3.org/2000/svg" xmlns:xlink="http://www.w3.org/1999/xlink">
    <title>on-deck</title>
    <g id="Page-1" stroke="none" stroke-width="1" fill="none" fill-rule="evenodd">
        <g id="spotify-covers-outlined" transform="translate(-677.000000, -87.000000)">
            <g id="on-deck" transform="translate(677.500000, 87.000000)">
                <rect id="Rectangle" fill="#5D00EF" x="0" y="0" width="529" height="529"></rect>
                <path d="M74,329.4 C81.8666667,329.4 89.0666667,327.866667 95.6,324.8 C102.133333,321.733333 107.733333,317.3 112.4,311.5 C117.066667,305.7 120.7,298.566667 123.3,290.1 C125.9,281.633333 127.2,272.066667 127.2,261.4 C127.2,250.733333 125.9,241.266667 123.3,233 C120.7,224.733333 117.066667,217.733333 112.4,212 C107.733333,206.266667 102.133333,201.933333 95.6,199 C89.0666667,196.066667 81.8666667,194.6 74,194.6 C66.1333333,194.6 58.9333333,196.066667 52.4,199 C45.8666667,201.933333 40.2666667,206.233333 35.6,211.9 C30.9333333,217.566667 27.3,224.566667 24.7,232.9 C22.1,241.233333 20.8,250.733333 20.8,261.4 C20.8,272.066667 22.1,281.633333 24.7,290.1 C27.3,298.566667 30.9333333,305.7 35.6,311.5 C40.2666667,317.3 45.8666667,321.733333 52.4,324.8 C58.9333333,327.866667 66.1333333,329.4 74,329.4 Z M74,299.8 C68.4,299.8 64,296.366667 60.8,289.5 C57.6,282.633333 56,273.266667 56,261.4 C56,249.533333 57.6,240.366667 60.8,233.9 C64,227.433333 68.4,224.2 74,224.2 C79.6,224.2 84,227.433333 87.2,233.9 C90.4,240.366667 92,249.533333 92,261.4 C92,273.266667 90.4,282.633333 87.2,289.5 C84,296.366667 79.6,299.8 74,299.8 Z M180.8,327 L180.8,289.4 C180.8,281.4 180.2,273 179,264.2 C177.8,255.4 176.8,247.266667 176,239.8 L176,239.8 L176.8,239.8 L187.4,268.8 L209.2,327 L244,327 L244,197 L211.2,197 L211.2,234.6 C211.2,238.6 211.366667,242.766667 211.7,247.1 C212.033333,251.433333 212.466667,255.766667 213,260.1 C213.533333,264.433333 214.066667,268.666667 214.6,272.8 C215.133333,276.933333 215.6,280.733333 216,284.2 L216,284.2 L215.2,284.2 L204.6,255 L182.8,197 L148,197 L148,327 L180.8,327 Z M64.2,497 C73,497 81.1333333,495.733333 88.6,493.2 C96.0666667,490.666667 102.566667,486.733333 108.1,481.4 C113.633333,476.066667 117.933333,469.266667 121,461 C124.066667,452.733333 125.6,442.866667 125.6,431.4 C125.6,419.933333 124.033333,410.133333 120.9,402 C117.766667,393.866667 113.4,387.2 107.8,382 C102.2,376.8 95.5333333,373 87.8,370.6 C80.0666667,368.2 71.5333333,367 62.2,367 L62.2,367 L25.6,367 L25.6,497 L64.2,497 Z M60.4,469.4 L60,469.4 L60,394.6 L60.4,394.6 C64.5333333,394.6 68.4333333,395.1 72.1,396.1 C75.7666667,397.1 78.9333333,398.933333 81.6,401.6 C84.2666667,404.266667 86.4,408 88,412.8 C89.6,417.6 90.4,423.8 90.4,431.4 C90.4,439 89.6,445.266667 88,450.2 C86.4,455.133333 84.2666667,459 81.6,461.8 C78.9333333,464.6 75.7666667,466.566667 72.1,467.7 C68.4333333,468.833333 64.5333333,469.4 60.4,469.4 L60.4,469.4 Z M243.2,497 L243.2,468.2 L187.6,468.2 L187.6,445 L233.2,445 L233.2,416.2 L187.6,416.2 L187.6,395.8 L241.2,395.8 L241.2,367 L153.2,367 L153.2,497 L243.2,497 Z M331.4,499.4 C339.4,499.4 346.933333,497.8 354,494.6 C361.066667,491.4 367.4,486.6 373,480.2 L373,480.2 L354.2,459.4 C351.4,462.466667 348.3,464.966667 344.9,466.9 C341.5,468.833333 337.666667,469.8 333.4,469.8 C324.6,469.8 317.4,466.533333 311.8,460 C306.2,453.466667 303.4,444.066667 303.4,431.8 C303.4,425.933333 304.133333,420.666667 305.6,416 C307.066667,411.333333 309.066667,407.4 311.6,404.2 C314.133333,401 317.133333,398.533333 320.6,396.8 C324.066667,395.066667 327.8,394.2 331.8,394.2 C336.2,394.2 340,394.933333 343.2,396.4 C346.4,397.866667 349.533333,399.933333 352.6,402.6 L352.6,402.6 L371.4,381.4 C366.733333,377 361.066667,373.1 354.4,369.7 C347.733333,366.3 340.2,364.6 331.8,364.6 C323,364.6 314.733333,366.133333 307,369.2 C299.266667,372.266667 292.533333,376.7 286.8,382.5 C281.066667,388.3 276.533333,395.433333 273.2,403.9 C269.866667,412.366667 268.2,422.066667 268.2,433 C268.2,444.066667 269.9,453.766667 273.3,462.1 C276.7,470.433333 281.3,477.366667 287.1,482.9 C292.9,488.433333 299.6,492.566667 307.2,495.3 C314.8,498.033333 322.866667,499.4 331.4,499.4 Z M426,497 L426,464.6 L438.4,447 L462,497 L499.8,497 L458.4,419.8 L496.6,367 L458.8,367 L426.8,415.4 L426,415.4 L426,367 L391.4,367 L391.4,497 L426,497 Z" id="ONDECK" fill="#FFFFFF" fill-rule="nonzero"></path>
            </g>
        </g>
    </g>
</svg>