<?xml version="1.0" encoding="UTF-8"?>
<svg width="529px" height="529px" viewBox="0 0 529 529" version="1.1" xmlns="http://www.w3.org/2000/svg" xmlns:xlink="http://www.w3.org/1999/xlink">
    <title>workout</title>
    <g id="Page-1" stroke="none" stroke-width="1" fill="none" fill-rule="evenodd">
        <g id="spotify-covers-outlined" transform="translate(-86.000000, -684.000000)">
            <g id="workout" transform="translate(86.000000, 684.000000)">
                <rect id="Rectangle" fill="#710D76" x="0" y="0" width="529" height="529"></rect>
                <path d="M65.4,327 L70.8,291.4 C71.4666667,287.133333 72.0666667,282.8 72.6,278.4 C73.1333333,274 73.5333333,269.866667 73.8,266 L73.8,266 L74.4,266 C74.5333333,269.866667 74.9,274 75.5,278.4 C76.1,282.8 76.7333333,287.133333 77.4,291.4 L77.4,291.4 L83.2,327 L118.8,327 L133.8,197 L101,197 L99.4,261.4 L99.4,295 L98.6,295 C97.6666667,289.133333 96.6,283.4 95.4,277.8 C94.2,272.2 93.1333333,266.733333 92.2,261.4 L92.2,261.4 L85.6,229.8 L65.6,229.8 L58.4,261.4 C57.3333333,267 56.2,272.6 55,278.2 C53.8,283.8 52.8,289.4 52,295 L52,295 L51.2,295 L51.2,261.4 L49.6,197 L14.4,197 L30.6,327 L65.4,327 Z M196,329.4 C203.866667,329.4 211.066667,327.866667 217.6,324.8 C224.133333,321.733333 229.733333,317.3 234.4,311.5 C239.066667,305.7 242.7,298.566667 245.3,290.1 C247.9,281.633333 249.2,272.066667 249.2,261.4 C249.2,250.733333 247.9,241.266667 245.3,233 C242.7,224.733333 239.066667,217.733333 234.4,212 C229.733333,206.266667 224.133333,201.933333 217.6,199 C211.066667,196.066667 203.866667,194.6 196,194.6 C188.133333,194.6 180.933333,196.066667 174.4,199 C167.866667,201.933333 162.266667,206.233333 157.6,211.9 C152.933333,217.566667 149.3,224.566667 146.7,232.9 C144.1,241.233333 142.8,250.733333 142.8,261.4 C142.8,272.066667 144.1,281.633333 146.7,290.1 C149.3,298.566667 152.933333,305.7 157.6,311.5 C162.266667,317.3 167.866667,321.733333 174.4,324.8 C180.933333,327.866667 188.133333,329.4 196,329.4 Z M196,299.8 C190.4,299.8 186,296.366667 182.8,289.5 C179.6,282.633333 178,273.266667 178,261.4 C178,249.533333 179.6,240.366667 182.8,233.9 C186,227.433333 190.4,224.2 196,224.2 C201.6,224.2 206,227.433333 209.2,233.9 C212.4,240.366667 214,249.533333 214,261.4 C214,273.266667 212.4,282.633333 209.2,289.5 C206,296.366667 201.6,299.8 196,299.8 Z M304,327 L304,283.4 L316.4,283.4 L338.8,327 L377.2,327 L349,276.6 C355.4,273.133333 360.5,268.333333 364.3,262.2 C368.1,256.066667 370,248.333333 370,239 C370,230.866667 368.6,224.1 365.8,218.7 C363,213.3 359.233333,209 354.5,205.8 C349.766667,202.6 344.233333,200.333333 337.9,199 C331.566667,197.666667 324.933333,197 318,197 L318,197 L269.6,197 L269.6,327 L304,327 Z M315.6,256.2 L304,256.2 L304,224.2 L315.6,224.2 C322.4,224.2 327.566667,225.266667 331.1,227.4 C334.633333,229.533333 336.4,233.4 336.4,239 C336.4,250.466667 329.466667,256.2 315.6,256.2 L315.6,256.2 Z M426,327 L426,294.6 L438.4,277 L462,327 L499.8,327 L458.4,249.8 L496.6,197 L458.8,197 L426.8,245.4 L426,245.4 L426,197 L391.4,197 L391.4,327 L426,327 Z M74,499.4 C81.8666667,499.4 89.0666667,497.866667 95.6,494.8 C102.133333,491.733333 107.733333,487.3 112.4,481.5 C117.066667,475.7 120.7,468.566667 123.3,460.1 C125.9,451.633333 127.2,442.066667 127.2,431.4 C127.2,420.733333 125.9,411.266667 123.3,403 C120.7,394.733333 117.066667,387.733333 112.4,382 C107.733333,376.266667 102.133333,371.933333 95.6,369 C89.0666667,366.066667 81.8666667,364.6 74,364.6 C66.1333333,364.6 58.9333333,366.066667 52.4,369 C45.8666667,371.933333 40.2666667,376.233333 35.6,381.9 C30.9333333,387.566667 27.3,394.566667 24.7,402.9 C22.1,411.233333 20.8,420.733333 20.8,431.4 C20.8,442.066667 22.1,451.633333 24.7,460.1 C27.3,468.566667 30.9333333,475.7 35.6,481.5 C40.2666667,487.3 45.8666667,491.733333 52.4,494.8 C58.9333333,497.866667 66.1333333,499.4 74,499.4 Z M74,469.8 C68.4,469.8 64,466.366667 60.8,459.5 C57.6,452.633333 56,443.266667 56,431.4 C56,419.533333 57.6,410.366667 60.8,403.9 C64,397.433333 68.4,394.2 74,394.2 C79.6,394.2 84,397.433333 87.2,403.9 C90.4,410.366667 92,419.533333 92,431.4 C92,443.266667 90.4,452.633333 87.2,459.5 C84,466.366667 79.6,469.8 74,469.8 Z M196.4,499.4 C204.933333,499.4 212.233333,498.166667 218.3,495.7 C224.366667,493.233333 229.333333,489.7 233.2,485.1 C237.066667,480.5 239.9,474.966667 241.7,468.5 C243.5,462.033333 244.4,454.733333 244.4,446.6 L244.4,446.6 L244.4,367 L211.2,367 L211.2,450.6 C211.2,456.2 210.133333,460.8 208,464.4 C205.866667,468 202,469.8 196.4,469.8 C190.933333,469.8 187.166667,468 185.1,464.4 C183.033333,460.8 182,456.2 182,450.6 L182,450.6 L182,367 L147.6,367 L147.6,446.6 C147.6,454.733333 148.533333,462.033333 150.4,468.5 C152.266667,474.966667 155.2,480.5 159.2,485.1 C163.2,489.7 168.266667,493.233333 174.4,495.7 C180.533333,498.166667 187.866667,499.4 196.4,499.4 Z M335.2,497 L335.2,395.8 L372.6,395.8 L372.6,367 L263.4,367 L263.4,395.8 L300.8,395.8 L300.8,497 L335.2,497 Z" id="WORKOUT" fill="#FFFFFF" fill-rule="nonzero"></path>
            </g>
        </g>
    </g>
</svg>