<?xml version="1.0" encoding="UTF-8"?>
<svg width="530px" height="529px" viewBox="0 0 530 529" version="1.1" xmlns="http://www.w3.org/2000/svg" xmlns:xlink="http://www.w3.org/1999/xlink">
    <title>serious-workout</title>
    <g id="Page-1" stroke="none" stroke-width="1" fill="none" fill-rule="evenodd">
        <g id="spotify-covers-outlined" transform="translate(-1263.000000, -2467.000000)">
            <g id="serious-workout" transform="translate(1263.500000, 2467.000000)">
                <rect id="Rectangle" fill="#812F54" x="0" y="0" width="529" height="529"></rect>
                <path d="M73.2,329.4 C81.6,329.4 89.0333333,328.266667 95.5,326 C101.966667,323.733333 107.4,320.7 111.8,316.9 C116.2,313.1 119.533333,308.666667 121.8,303.6 C124.066667,298.533333 125.2,293.266667 125.2,287.8 C125.2,278.733333 122.833333,271.333333 118.1,265.6 C113.366667,259.866667 106.6,255.4 97.8,252.2 L97.8,252.2 L82.8,246 C76.2666667,243.6 71.2333333,241.6 67.7,240 C64.1666667,238.4 62.4,236.066667 62.4,233 C62.4,227.133333 67.3333333,224.2 77.2,224.2 C82.4,224.2 87.0666667,225 91.2,226.6 C95.3333333,228.2 99.7333333,230.533333 104.4,233.6 L104.4,233.6 L121.6,212 C115.2,206 108.133333,201.6 100.4,198.8 C92.6666667,196 84.9333333,194.6 77.2,194.6 C69.7333333,194.6 62.9666667,195.666667 56.9,197.8 C50.8333333,199.933333 45.6333333,202.833333 41.3,206.5 C36.9666667,210.166667 33.6,214.433333 31.2,219.3 C28.8,224.166667 27.6,229.4 27.6,235 C27.6,239.666667 28.3333333,243.933333 29.8,247.8 C31.2666667,251.666667 33.2333333,255.1 35.7,258.1 C38.1666667,261.1 41.0666667,263.7 44.4,265.9 C47.7333333,268.1 51.2666667,269.866667 55,271.2 L55,271.2 L71.2,278 C74.2666667,279.066667 76.9666667,280.033333 79.3,280.9 C81.6333333,281.766667 83.6,282.666667 85.2,283.6 C86.8,284.533333 88,285.533333 88.8,286.6 C89.6,287.666667 90,289 90,290.6 C90,293.533333 88.8333333,295.8 86.5,297.4 C84.1666667,299 80,299.8 74,299.8 C68.9333333,299.8 63.6333333,298.633333 58.1,296.3 C52.5666667,293.966667 47.3333333,290.933333 42.4,287.2 L42.4,287.2 L22.8,310.8 C30.1333333,317.2 38.2333333,321.9 47.1,324.9 C55.9666667,327.9 64.6666667,329.4 73.2,329.4 Z M243.2,327 L243.2,298.2 L187.6,298.2 L187.6,275 L233.2,275 L233.2,246.2 L187.6,246.2 L187.6,225.8 L241.2,225.8 L241.2,197 L153.2,197 L153.2,327 L243.2,327 Z M304,327 L304,283.4 L316.4,283.4 L338.8,327 L377.2,327 L349,276.6 C355.4,273.133333 360.5,268.333333 364.3,262.2 C368.1,256.066667 370,248.333333 370,239 C370,230.866667 368.6,224.1 365.8,218.7 C363,213.3 359.233333,209 354.5,205.8 C349.766667,202.6 344.233333,200.333333 337.9,199 C331.566667,197.666667 324.933333,197 318,197 L318,197 L269.6,197 L269.6,327 L304,327 Z M315.6,256.2 L304,256.2 L304,224.2 L315.6,224.2 C322.4,224.2 327.566667,225.266667 331.1,227.4 C334.633333,229.533333 336.4,233.4 336.4,239 C336.4,250.466667 329.466667,256.2 315.6,256.2 L315.6,256.2 Z M486.8,327 L486.8,298.2 L457.2,298.2 L457.2,225.8 L486.8,225.8 L486.8,197 L393.2,197 L393.2,225.8 L422.8,225.8 L422.8,298.2 L393.2,298.2 L393.2,327 L486.8,327 Z M74,499.4 C81.8666667,499.4 89.0666667,497.866667 95.6,494.8 C102.133333,491.733333 107.733333,487.3 112.4,481.5 C117.066667,475.7 120.7,468.566667 123.3,460.1 C125.9,451.633333 127.2,442.066667 127.2,431.4 C127.2,420.733333 125.9,411.266667 123.3,403 C120.7,394.733333 117.066667,387.733333 112.4,382 C107.733333,376.266667 102.133333,371.933333 95.6,369 C89.0666667,366.066667 81.8666667,364.6 74,364.6 C66.1333333,364.6 58.9333333,366.066667 52.4,369 C45.8666667,371.933333 40.2666667,376.233333 35.6,381.9 C30.9333333,387.566667 27.3,394.566667 24.7,402.9 C22.1,411.233333 20.8,420.733333 20.8,431.4 C20.8,442.066667 22.1,451.633333 24.7,460.1 C27.3,468.566667 30.9333333,475.7 35.6,481.5 C40.2666667,487.3 45.8666667,491.733333 52.4,494.8 C58.9333333,497.866667 66.1333333,499.4 74,499.4 Z M74,469.8 C68.4,469.8 64,466.366667 60.8,459.5 C57.6,452.633333 56,443.266667 56,431.4 C56,419.533333 57.6,410.366667 60.8,403.9 C64,397.433333 68.4,394.2 74,394.2 C79.6,394.2 84,397.433333 87.2,403.9 C90.4,410.366667 92,419.533333 92,431.4 C92,443.266667 90.4,452.633333 87.2,459.5 C84,466.366667 79.6,469.8 74,469.8 Z M196.4,499.4 C204.933333,499.4 212.233333,498.166667 218.3,495.7 C224.366667,493.233333 229.333333,489.7 233.2,485.1 C237.066667,480.5 239.9,474.966667 241.7,468.5 C243.5,462.033333 244.4,454.733333 244.4,446.6 L244.4,446.6 L244.4,367 L211.2,367 L211.2,450.6 C211.2,456.2 210.133333,460.8 208,464.4 C205.866667,468 202,469.8 196.4,469.8 C190.933333,469.8 187.166667,468 185.1,464.4 C183.033333,460.8 182,456.2 182,450.6 L182,450.6 L182,367 L147.6,367 L147.6,446.6 C147.6,454.733333 148.533333,462.033333 150.4,468.5 C152.266667,474.966667 155.2,480.5 159.2,485.1 C163.2,489.7 168.266667,493.233333 174.4,495.7 C180.533333,498.166667 187.866667,499.4 196.4,499.4 Z M317.2,499.4 C325.6,499.4 333.033333,498.266667 339.5,496 C345.966667,493.733333 351.4,490.7 355.8,486.9 C360.2,483.1 363.533333,478.666667 365.8,473.6 C368.066667,468.533333 369.2,463.266667 369.2,457.8 C369.2,448.733333 366.833333,441.333333 362.1,435.6 C357.366667,429.866667 350.6,425.4 341.8,422.2 L341.8,422.2 L326.8,416 C320.266667,413.6 315.233333,411.6 311.7,410 C308.166667,408.4 306.4,406.066667 306.4,403 C306.4,397.133333 311.333333,394.2 321.2,394.2 C326.4,394.2 331.066667,395 335.2,396.6 C339.333333,398.2 343.733333,400.533333 348.4,403.6 L348.4,403.6 L365.6,382 C359.2,376 352.133333,371.6 344.4,368.8 C336.666667,366 328.933333,364.6 321.2,364.6 C313.733333,364.6 306.966667,365.666667 300.9,367.8 C294.833333,369.933333 289.633333,372.833333 285.3,376.5 C280.966667,380.166667 277.6,384.433333 275.2,389.3 C272.8,394.166667 271.6,399.4 271.6,405 C271.6,409.666667 272.333333,413.933333 273.8,417.8 C275.266667,421.666667 277.233333,425.1 279.7,428.1 C282.166667,431.1 285.066667,433.7 288.4,435.9 C291.733333,438.1 295.266667,439.866667 299,441.2 L299,441.2 L315.2,448 C318.266667,449.066667 320.966667,450.033333 323.3,450.9 C325.633333,451.766667 327.6,452.666667 329.2,453.6 C330.8,454.533333 332,455.533333 332.8,456.6 C333.6,457.666667 334,459 334,460.6 C334,463.533333 332.833333,465.8 330.5,467.4 C328.166667,469 324,469.8 318,469.8 C312.933333,469.8 307.633333,468.633333 302.1,466.3 C296.566667,463.966667 291.333333,460.933333 286.4,457.2 L286.4,457.2 L266.8,480.8 C274.133333,487.2 282.233333,491.9 291.1,494.9 C299.966667,497.9 308.666667,499.4 317.2,499.4 Z" id="SERIOUS" fill="#FFFFFF" fill-rule="nonzero"></path>
            </g>
        </g>
    </g>
</svg>