<?xml version="1.0" encoding="UTF-8"?>
<svg width="530px" height="529px" viewBox="0 0 530 529" version="1.1" xmlns="http://www.w3.org/2000/svg" xmlns:xlink="http://www.w3.org/1999/xlink">
    <title>oregon</title>
    <g id="Page-1" stroke="none" stroke-width="1" fill="none" fill-rule="evenodd">
        <g id="spotify-covers-outlined" transform="translate(-677.000000, -2467.000000)">
            <g id="oregon" transform="translate(677.500000, 2467.000000)">
                <rect id="Rectangle" fill="#38452C" x="0" y="0" width="529" height="529"></rect>
                <path d="M74,329.4 C81.8666667,329.4 89.0666667,327.866667 95.6,324.8 C102.133333,321.733333 107.733333,317.3 112.4,311.5 C117.066667,305.7 120.7,298.566667 123.3,290.1 C125.9,281.633333 127.2,272.066667 127.2,261.4 C127.2,250.733333 125.9,241.266667 123.3,233 C120.7,224.733333 117.066667,217.733333 112.4,212 C107.733333,206.266667 102.133333,201.933333 95.6,199 C89.0666667,196.066667 81.8666667,194.6 74,194.6 C66.1333333,194.6 58.9333333,196.066667 52.4,199 C45.8666667,201.933333 40.2666667,206.233333 35.6,211.9 C30.9333333,217.566667 27.3,224.566667 24.7,232.9 C22.1,241.233333 20.8,250.733333 20.8,261.4 C20.8,272.066667 22.1,281.633333 24.7,290.1 C27.3,298.566667 30.9333333,305.7 35.6,311.5 C40.2666667,317.3 45.8666667,321.733333 52.4,324.8 C58.9333333,327.866667 66.1333333,329.4 74,329.4 Z M74,299.8 C68.4,299.8 64,296.366667 60.8,289.5 C57.6,282.633333 56,273.266667 56,261.4 C56,249.533333 57.6,240.366667 60.8,233.9 C64,227.433333 68.4,224.2 74,224.2 C79.6,224.2 84,227.433333 87.2,233.9 C90.4,240.366667 92,249.533333 92,261.4 C92,273.266667 90.4,282.633333 87.2,289.5 C84,296.366667 79.6,299.8 74,299.8 Z M182,327 L182,283.4 L194.4,283.4 L216.8,327 L255.2,327 L227,276.6 C233.4,273.133333 238.5,268.333333 242.3,262.2 C246.1,256.066667 248,248.333333 248,239 C248,230.866667 246.6,224.1 243.8,218.7 C241,213.3 237.233333,209 232.5,205.8 C227.766667,202.6 222.233333,200.333333 215.9,199 C209.566667,197.666667 202.933333,197 196,197 L196,197 L147.6,197 L147.6,327 L182,327 Z M193.6,256.2 L182,256.2 L182,224.2 L193.6,224.2 C200.4,224.2 205.566667,225.266667 209.1,227.4 C212.633333,229.533333 214.4,233.4 214.4,239 C214.4,250.466667 207.466667,256.2 193.6,256.2 L193.6,256.2 Z M365.2,327 L365.2,298.2 L309.6,298.2 L309.6,275 L355.2,275 L355.2,246.2 L309.6,246.2 L309.6,225.8 L363.2,225.8 L363.2,197 L275.2,197 L275.2,327 L365.2,327 Z M83,499.4 C87.1333333,499.4 91.2,498.933333 95.2,498 C99.2,497.066667 103,495.866667 106.6,494.4 C110.2,492.933333 113.5,491.233333 116.5,489.3 C119.5,487.366667 122.133333,485.4 124.4,483.4 L124.4,483.4 L124.4,421.4 L77.6,421.4 L77.6,449.4 L93.8,449.4 L93.8,467.4 C92.7333333,468.2 91.4,468.8 89.8,469.2 C88.2,469.6 86.6,469.8 85,469.8 C75.6666667,469.8 68.7333333,466.533333 64.2,460 C59.6666667,453.466667 57.4,444.066667 57.4,431.8 C57.4,425.933333 58.0666667,420.666667 59.4,416 C60.7333333,411.333333 62.5666667,407.4 64.9,404.2 C67.2333333,401 69.9666667,398.533333 73.1,396.8 C76.2333333,395.066667 79.6,394.2 83.2,394.2 C87.8666667,394.2 91.7,394.933333 94.7,396.4 C97.7,397.866667 100.533333,399.933333 103.2,402.6 L103.2,402.6 L122,381.4 C117.733333,377 112.4,373.1 106,369.7 C99.6,366.3 92,364.6 83.2,364.6 C74.8,364.6 66.8666667,366.1 59.4,369.1 C51.9333333,372.1 45.4333333,376.5 39.9,382.3 C34.3666667,388.1 30,395.266667 26.8,403.8 C23.6,412.333333 22,422.066667 22,433 C22,444.066667 23.6,453.766667 26.8,462.1 C30,470.433333 34.3666667,477.366667 39.9,482.9 C45.4333333,488.433333 51.9,492.566667 59.3,495.3 C66.7,498.033333 74.6,499.4 83,499.4 Z M196,499.4 C203.866667,499.4 211.066667,497.866667 217.6,494.8 C224.133333,491.733333 229.733333,487.3 234.4,481.5 C239.066667,475.7 242.7,468.566667 245.3,460.1 C247.9,451.633333 249.2,442.066667 249.2,431.4 C249.2,420.733333 247.9,411.266667 245.3,403 C242.7,394.733333 239.066667,387.733333 234.4,382 C229.733333,376.266667 224.133333,371.933333 217.6,369 C211.066667,366.066667 203.866667,364.6 196,364.6 C188.133333,364.6 180.933333,366.066667 174.4,369 C167.866667,371.933333 162.266667,376.233333 157.6,381.9 C152.933333,387.566667 149.3,394.566667 146.7,402.9 C144.1,411.233333 142.8,420.733333 142.8,431.4 C142.8,442.066667 144.1,451.633333 146.7,460.1 C149.3,468.566667 152.933333,475.7 157.6,481.5 C162.266667,487.3 167.866667,491.733333 174.4,494.8 C180.933333,497.866667 188.133333,499.4 196,499.4 Z M196,469.8 C190.4,469.8 186,466.366667 182.8,459.5 C179.6,452.633333 178,443.266667 178,431.4 C178,419.533333 179.6,410.366667 182.8,403.9 C186,397.433333 190.4,394.2 196,394.2 C201.6,394.2 206,397.433333 209.2,403.9 C212.4,410.366667 214,419.533333 214,431.4 C214,443.266667 212.4,452.633333 209.2,459.5 C206,466.366667 201.6,469.8 196,469.8 Z M302.8,497 L302.8,459.4 C302.8,451.4 302.2,443 301,434.2 C299.8,425.4 298.8,417.266667 298,409.8 L298,409.8 L298.8,409.8 L309.4,438.8 L331.2,497 L366,497 L366,367 L333.2,367 L333.2,404.6 C333.2,408.6 333.366667,412.766667 333.7,417.1 C334.033333,421.433333 334.466667,425.766667 335,430.1 C335.533333,434.433333 336.066667,438.666667 336.6,442.8 C337.133333,446.933333 337.6,450.733333 338,454.2 L338,454.2 L337.2,454.2 L326.6,425 L304.8,367 L270,367 L270,497 L302.8,497 Z" id="OREGON" fill="#FFFFFF" fill-rule="nonzero"></path>
            </g>
        </g>
    </g>
</svg>