<?xml version="1.0" encoding="UTF-8"?>
<svg width="530px" height="529px" viewBox="0 0 530 529" version="1.1" xmlns="http://www.w3.org/2000/svg" xmlns:xlink="http://www.w3.org/1999/xlink">
    <title>weekender</title>
    <g id="Page-1" stroke="none" stroke-width="1" fill="none" fill-rule="evenodd">
        <g id="spotify-covers-outlined" transform="translate(-677.000000, -1284.000000)">
            <g id="weekender" transform="translate(677.500000, 1284.000000)">
                <rect id="Rectangle" fill="#FFD024" x="0" y="0" width="529" height="529"></rect>
                <path d="M65.4,157 L70.8,121.4 C71.4666667,117.133333 72.0666667,112.8 72.6,108.4 C73.1333333,104 73.5333333,99.8666667 73.8,96 L73.8,96 L74.4,96 C74.5333333,99.8666667 74.9,104 75.5,108.4 C76.1,112.8 76.7333333,117.133333 77.4,121.4 L77.4,121.4 L83.2,157 L118.8,157 L133.8,27 L101,27 L99.4,91.4 L99.4,125 L98.6,125 C97.6666667,119.133333 96.6,113.4 95.4,107.8 C94.2,102.2 93.1333333,96.7333333 92.2,91.4 L92.2,91.4 L85.6,59.8 L65.6,59.8 L58.4,91.4 C57.3333333,97 56.2,102.6 55,108.2 C53.8,113.8 52.8,119.4 52,125 L52,125 L51.2,125 L51.2,91.4 L49.6,27 L14.4,27 L30.6,157 L65.4,157 Z M243.2,157 L243.2,128.2 L187.6,128.2 L187.6,105 L233.2,105 L233.2,76.2 L187.6,76.2 L187.6,55.8 L241.2,55.8 L241.2,27 L153.2,27 L153.2,157 L243.2,157 Z M365.2,157 L365.2,128.2 L309.6,128.2 L309.6,105 L355.2,105 L355.2,76.2 L309.6,76.2 L309.6,55.8 L363.2,55.8 L363.2,27 L275.2,27 L275.2,157 L365.2,157 Z M426,157 L426,124.6 L438.4,107 L462,157 L499.8,157 L458.4,79.8 L496.6,27 L458.8,27 L426.8,75.4 L426,75.4 L426,27 L391.4,27 L391.4,157 L426,157 Z M121.2,327 L121.2,298.2 L65.6,298.2 L65.6,275 L111.2,275 L111.2,246.2 L65.6,246.2 L65.6,225.8 L119.2,225.8 L119.2,197 L31.2,197 L31.2,327 L121.2,327 Z M180.8,327 L180.8,289.4 C180.8,281.4 180.2,273 179,264.2 C177.8,255.4 176.8,247.266667 176,239.8 L176,239.8 L176.8,239.8 L187.4,268.8 L209.2,327 L244,327 L244,197 L211.2,197 L211.2,234.6 C211.2,238.6 211.366667,242.766667 211.7,247.1 C212.033333,251.433333 212.466667,255.766667 213,260.1 C213.533333,264.433333 214.066667,268.666667 214.6,272.8 C215.133333,276.933333 215.6,280.733333 216,284.2 L216,284.2 L215.2,284.2 L204.6,255 L182.8,197 L148,197 L148,327 L180.8,327 Z M308.2,327 C317,327 325.133333,325.733333 332.6,323.2 C340.066667,320.666667 346.566667,316.733333 352.1,311.4 C357.633333,306.066667 361.933333,299.266667 365,291 C368.066667,282.733333 369.6,272.866667 369.6,261.4 C369.6,249.933333 368.033333,240.133333 364.9,232 C361.766667,223.866667 357.4,217.2 351.8,212 C346.2,206.8 339.533333,203 331.8,200.6 C324.066667,198.2 315.533333,197 306.2,197 L306.2,197 L269.6,197 L269.6,327 L308.2,327 Z M304.4,299.4 L304,299.4 L304,224.6 L304.4,224.6 C308.533333,224.6 312.433333,225.1 316.1,226.1 C319.766667,227.1 322.933333,228.933333 325.6,231.6 C328.266667,234.266667 330.4,238 332,242.8 C333.6,247.6 334.4,253.8 334.4,261.4 C334.4,269 333.6,275.266667 332,280.2 C330.4,285.133333 328.266667,289 325.6,291.8 C322.933333,294.6 319.766667,296.566667 316.1,297.7 C312.433333,298.833333 308.533333,299.4 304.4,299.4 L304.4,299.4 Z M121.2,497 L121.2,468.2 L65.6,468.2 L65.6,445 L111.2,445 L111.2,416.2 L65.6,416.2 L65.6,395.8 L119.2,395.8 L119.2,367 L31.2,367 L31.2,497 L121.2,497 Z M182,497 L182,453.4 L194.4,453.4 L216.8,497 L255.2,497 L227,446.6 C233.4,443.133333 238.5,438.333333 242.3,432.2 C246.1,426.066667 248,418.333333 248,409 C248,400.866667 246.6,394.1 243.8,388.7 C241,383.3 237.233333,379 232.5,375.8 C227.766667,372.6 222.233333,370.333333 215.9,369 C209.566667,367.666667 202.933333,367 196,367 L196,367 L147.6,367 L147.6,497 L182,497 Z M193.6,426.2 L182,426.2 L182,394.2 L193.6,394.2 C200.4,394.2 205.566667,395.266667 209.1,397.4 C212.633333,399.533333 214.4,403.4 214.4,409 C214.4,420.466667 207.466667,426.2 193.6,426.2 L193.6,426.2 Z" id="WEEKENDER" fill="#FFFFFF" fill-rule="nonzero"></path>
            </g>
        </g>
    </g>
</svg>