<?xml version="1.0" encoding="UTF-8"?>
<svg width="530px" height="529px" viewBox="0 0 530 529" version="1.1" xmlns="http://www.w3.org/2000/svg" xmlns:xlink="http://www.w3.org/1999/xlink">
    <title>party</title>
    <g id="Page-1" stroke="none" stroke-width="1" fill="none" fill-rule="evenodd">
        <g id="spotify-covers-outlined" transform="translate(-677.000000, -684.000000)">
            <g id="party" transform="translate(677.500000, 684.000000)">
                <rect id="Rectangle" fill="#009DDB" x="0" y="0" width="529" height="529"></rect>
                <path d="M61,327 L61,285.8 L77,285.8 C83.8,285.8 90.3333333,284.9 96.6,283.1 C102.866667,281.3 108.4,278.566667 113.2,274.9 C118,271.233333 121.833333,266.533333 124.7,260.8 C127.566667,255.066667 129,248.2 129,240.2 C129,232.066667 127.6,225.233333 124.8,219.7 C122,214.166667 118.233333,209.7 113.5,206.3 C108.766667,202.9 103.233333,200.5 96.9,199.1 C90.5666667,197.7 83.9333333,197 77,197 L77,197 L26.6,197 L26.6,327 L61,327 Z M75.4,258.6 L61,258.6 L61,224.2 L75.4,224.2 C81.8,224.2 86.7333333,225.4 90.2,227.8 C93.6666667,230.2 95.4,234.333333 95.4,240.2 C95.4,246.066667 93.7666667,250.6 90.5,253.8 C87.2333333,257 82.2,258.6 75.4,258.6 L75.4,258.6 Z M171.2,327 L177.6,299.4 L213.2,299.4 L219.6,327 L256,327 L216.8,197 L175.2,197 L136,327 L171.2,327 Z M207,272.8 L183.8,272.8 L185.8,263.8 C187.266667,257.533333 188.766667,250.766667 190.3,243.5 C191.833333,236.233333 193.333333,229.266667 194.8,222.6 L194.8,222.6 L195.6,222.6 C197.2,229.133333 198.8,236.066667 200.4,243.4 C202,250.733333 203.533333,257.533333 205,263.8 L205,263.8 L207,272.8 Z M304,327 L304,283.4 L316.4,283.4 L338.8,327 L377.2,327 L349,276.6 C355.4,273.133333 360.5,268.333333 364.3,262.2 C368.1,256.066667 370,248.333333 370,239 C370,230.866667 368.6,224.1 365.8,218.7 C363,213.3 359.233333,209 354.5,205.8 C349.766667,202.6 344.233333,200.333333 337.9,199 C331.566667,197.666667 324.933333,197 318,197 L318,197 L269.6,197 L269.6,327 L304,327 Z M315.6,256.2 L304,256.2 L304,224.2 L315.6,224.2 C322.4,224.2 327.566667,225.266667 331.1,227.4 C334.633333,229.533333 336.4,233.4 336.4,239 C336.4,250.466667 329.466667,256.2 315.6,256.2 L315.6,256.2 Z M91.2,497 L91.2,395.8 L128.6,395.8 L128.6,367 L19.4,367 L19.4,395.8 L56.8,395.8 L56.8,497 L91.2,497 Z M213.2,497 L213.2,454 L254.4,367 L218.4,367 L207.6,395.4 C205.733333,400.466667 203.9,405.366667 202.1,410.1 C200.3,414.833333 198.466667,419.8 196.6,425 L196.6,425 L195.8,425 C193.933333,419.8 192.133333,414.833333 190.4,410.1 C188.666667,405.366667 186.933333,400.466667 185.2,395.4 L185.2,395.4 L174.4,367 L137.6,367 L178.8,454 L178.8,497 L213.2,497 Z" id="PARTY" fill="#FFFFFF" fill-rule="nonzero"></path>
            </g>
        </g>
    </g>
</svg>