<?xml version="1.0" encoding="UTF-8"?>
<svg width="529px" height="529px" viewBox="0 0 529 529" version="1.1" xmlns="http://www.w3.org/2000/svg" xmlns:xlink="http://www.w3.org/1999/xlink">
    <title>all-purpose</title>
    <g id="Page-1" stroke="none" stroke-width="1" fill="none" fill-rule="evenodd">
        <g id="spotify-covers-outlined" transform="translate(-1895.000000, -87.000000)">
            <g id="all-purpose" transform="translate(1895.000000, 87.000000)">
                <rect id="Rectangle" fill="#829B30" x="0" y="0" width="529" height="529"></rect>
                <path d="M49.2,157 L55.6,129.4 L91.2,129.4 L97.6,157 L134,157 L94.8,27 L53.2,27 L14,157 L49.2,157 Z M85,102.8 L61.8,102.8 L63.8,93.8 C65.2666667,87.5333333 66.7666667,80.7666667 68.3,73.5 C69.8333333,66.2333333 71.3333333,59.2666667 72.8,52.6 L72.8,52.6 L73.6,52.6 C75.2,59.1333333 76.8,66.0666667 78.4,73.4 C80,80.7333333 81.5333333,87.5333333 83,93.8 L83,93.8 L85,102.8 Z M245,157 L245,128.2 L189.6,128.2 L189.6,27 L155.2,27 L155.2,157 L245,157 Z M367,157 L367,128.2 L311.6,128.2 L311.6,27 L277.2,27 L277.2,157 L367,157 Z M61,327 L61,285.8 L77,285.8 C83.8,285.8 90.3333333,284.9 96.6,283.1 C102.866667,281.3 108.4,278.566667 113.2,274.9 C118,271.233333 121.833333,266.533333 124.7,260.8 C127.566667,255.066667 129,248.2 129,240.2 C129,232.066667 127.6,225.233333 124.8,219.7 C122,214.166667 118.233333,209.7 113.5,206.3 C108.766667,202.9 103.233333,200.5 96.9,199.1 C90.5666667,197.7 83.9333333,197 77,197 L77,197 L26.6,197 L26.6,327 L61,327 Z M75.4,258.6 L61,258.6 L61,224.2 L75.4,224.2 C81.8,224.2 86.7333333,225.4 90.2,227.8 C93.6666667,230.2 95.4,234.333333 95.4,240.2 C95.4,246.066667 93.7666667,250.6 90.5,253.8 C87.2333333,257 82.2,258.6 75.4,258.6 L75.4,258.6 Z M196.4,329.4 C204.933333,329.4 212.233333,328.166667 218.3,325.7 C224.366667,323.233333 229.333333,319.7 233.2,315.1 C237.066667,310.5 239.9,304.966667 241.7,298.5 C243.5,292.033333 244.4,284.733333 244.4,276.6 L244.4,276.6 L244.4,197 L211.2,197 L211.2,280.6 C211.2,286.2 210.133333,290.8 208,294.4 C205.866667,298 202,299.8 196.4,299.8 C190.933333,299.8 187.166667,298 185.1,294.4 C183.033333,290.8 182,286.2 182,280.6 L182,280.6 L182,197 L147.6,197 L147.6,276.6 C147.6,284.733333 148.533333,292.033333 150.4,298.5 C152.266667,304.966667 155.2,310.5 159.2,315.1 C163.2,319.7 168.266667,323.233333 174.4,325.7 C180.533333,328.166667 187.866667,329.4 196.4,329.4 Z M304,327 L304,283.4 L316.4,283.4 L338.8,327 L377.2,327 L349,276.6 C355.4,273.133333 360.5,268.333333 364.3,262.2 C368.1,256.066667 370,248.333333 370,239 C370,230.866667 368.6,224.1 365.8,218.7 C363,213.3 359.233333,209 354.5,205.8 C349.766667,202.6 344.233333,200.333333 337.9,199 C331.566667,197.666667 324.933333,197 318,197 L318,197 L269.6,197 L269.6,327 L304,327 Z M315.6,256.2 L304,256.2 L304,224.2 L315.6,224.2 C322.4,224.2 327.566667,225.266667 331.1,227.4 C334.633333,229.533333 336.4,233.4 336.4,239 C336.4,250.466667 329.466667,256.2 315.6,256.2 L315.6,256.2 Z M61,497 L61,455.8 L77,455.8 C83.8,455.8 90.3333333,454.9 96.6,453.1 C102.866667,451.3 108.4,448.566667 113.2,444.9 C118,441.233333 121.833333,436.533333 124.7,430.8 C127.566667,425.066667 129,418.2 129,410.2 C129,402.066667 127.6,395.233333 124.8,389.7 C122,384.166667 118.233333,379.7 113.5,376.3 C108.766667,372.9 103.233333,370.5 96.9,369.1 C90.5666667,367.7 83.9333333,367 77,367 L77,367 L26.6,367 L26.6,497 L61,497 Z M75.4,428.6 L61,428.6 L61,394.2 L75.4,394.2 C81.8,394.2 86.7333333,395.4 90.2,397.8 C93.6666667,400.2 95.4,404.333333 95.4,410.2 C95.4,416.066667 93.7666667,420.6 90.5,423.8 C87.2333333,427 82.2,428.6 75.4,428.6 L75.4,428.6 Z M196,499.4 C203.866667,499.4 211.066667,497.866667 217.6,494.8 C224.133333,491.733333 229.733333,487.3 234.4,481.5 C239.066667,475.7 242.7,468.566667 245.3,460.1 C247.9,451.633333 249.2,442.066667 249.2,431.4 C249.2,420.733333 247.9,411.266667 245.3,403 C242.7,394.733333 239.066667,387.733333 234.4,382 C229.733333,376.266667 224.133333,371.933333 217.6,369 C211.066667,366.066667 203.866667,364.6 196,364.6 C188.133333,364.6 180.933333,366.066667 174.4,369 C167.866667,371.933333 162.266667,376.233333 157.6,381.9 C152.933333,387.566667 149.3,394.566667 146.7,402.9 C144.1,411.233333 142.8,420.733333 142.8,431.4 C142.8,442.066667 144.1,451.633333 146.7,460.1 C149.3,468.566667 152.933333,475.7 157.6,481.5 C162.266667,487.3 167.866667,491.733333 174.4,494.8 C180.933333,497.866667 188.133333,499.4 196,499.4 Z M196,469.8 C190.4,469.8 186,466.366667 182.8,459.5 C179.6,452.633333 178,443.266667 178,431.4 C178,419.533333 179.6,410.366667 182.8,403.9 C186,397.433333 190.4,394.2 196,394.2 C201.6,394.2 206,397.433333 209.2,403.9 C212.4,410.366667 214,419.533333 214,431.4 C214,443.266667 212.4,452.633333 209.2,459.5 C206,466.366667 201.6,469.8 196,469.8 Z M317.2,499.4 C325.6,499.4 333.033333,498.266667 339.5,496 C345.966667,493.733333 351.4,490.7 355.8,486.9 C360.2,483.1 363.533333,478.666667 365.8,473.6 C368.066667,468.533333 369.2,463.266667 369.2,457.8 C369.2,448.733333 366.833333,441.333333 362.1,435.6 C357.366667,429.866667 350.6,425.4 341.8,422.2 L341.8,422.2 L326.8,416 C320.266667,413.6 315.233333,411.6 311.7,410 C308.166667,408.4 306.4,406.066667 306.4,403 C306.4,397.133333 311.333333,394.2 321.2,394.2 C326.4,394.2 331.066667,395 335.2,396.6 C339.333333,398.2 343.733333,400.533333 348.4,403.6 L348.4,403.6 L365.6,382 C359.2,376 352.133333,371.6 344.4,368.8 C336.666667,366 328.933333,364.6 321.2,364.6 C313.733333,364.6 306.966667,365.666667 300.9,367.8 C294.833333,369.933333 289.633333,372.833333 285.3,376.5 C280.966667,380.166667 277.6,384.433333 275.2,389.3 C272.8,394.166667 271.6,399.4 271.6,405 C271.6,409.666667 272.333333,413.933333 273.8,417.8 C275.266667,421.666667 277.233333,425.1 279.7,428.1 C282.166667,431.1 285.066667,433.7 288.4,435.9 C291.733333,438.1 295.266667,439.866667 299,441.2 L299,441.2 L315.2,448 C318.266667,449.066667 320.966667,450.033333 323.3,450.9 C325.633333,451.766667 327.6,452.666667 329.2,453.6 C330.8,454.533333 332,455.533333 332.8,456.6 C333.6,457.666667 334,459 334,460.6 C334,463.533333 332.833333,465.8 330.5,467.4 C328.166667,469 324,469.8 318,469.8 C312.933333,469.8 307.633333,468.633333 302.1,466.3 C296.566667,463.966667 291.333333,460.933333 286.4,457.2 L286.4,457.2 L266.8,480.8 C274.133333,487.2 282.233333,491.9 291.1,494.9 C299.966667,497.9 308.666667,499.4 317.2,499.4 Z M487.2,497 L487.2,468.2 L431.6,468.2 L431.6,445 L477.2,445 L477.2,416.2 L431.6,416.2 L431.6,395.8 L485.2,395.8 L485.2,367 L397.2,367 L397.2,497 L487.2,497 Z" id="ALLPURPOSE" fill="#FFFFFF" fill-rule="nonzero"></path>
            </g>
        </g>
    </g>
</svg>