<?xml version="1.0" encoding="UTF-8"?>
<svg width="529px" height="529px" viewBox="0 0 529 529" version="1.1" xmlns="http://www.w3.org/2000/svg" xmlns:xlink="http://www.w3.org/1999/xlink">
    <title>dolly</title>
    <g id="Page-1" stroke="none" stroke-width="1" fill="none" fill-rule="evenodd">
        <g id="spotify-covers-outlined" transform="translate(-86.000000, -2467.000000)">
            <g id="dolly" transform="translate(86.000000, 2467.000000)">
                <rect id="Rectangle" fill="#EAD840" x="0" y="0" width="529" height="529"></rect>
                <path d="M64.2,327 C73,327 81.1333333,325.733333 88.6,323.2 C96.0666667,320.666667 102.566667,316.733333 108.1,311.4 C113.633333,306.066667 117.933333,299.266667 121,291 C124.066667,282.733333 125.6,272.866667 125.6,261.4 C125.6,249.933333 124.033333,240.133333 120.9,232 C117.766667,223.866667 113.4,217.2 107.8,212 C102.2,206.8 95.5333333,203 87.8,200.6 C80.0666667,198.2 71.5333333,197 62.2,197 L62.2,197 L25.6,197 L25.6,327 L64.2,327 Z M60.4,299.4 L60,299.4 L60,224.6 L60.4,224.6 C64.5333333,224.6 68.4333333,225.1 72.1,226.1 C75.7666667,227.1 78.9333333,228.933333 81.6,231.6 C84.2666667,234.266667 86.4,238 88,242.8 C89.6,247.6 90.4,253.8 90.4,261.4 C90.4,269 89.6,275.266667 88,280.2 C86.4,285.133333 84.2666667,289 81.6,291.8 C78.9333333,294.6 75.7666667,296.566667 72.1,297.7 C68.4333333,298.833333 64.5333333,299.4 60.4,299.4 L60.4,299.4 Z M196,329.4 C203.866667,329.4 211.066667,327.866667 217.6,324.8 C224.133333,321.733333 229.733333,317.3 234.4,311.5 C239.066667,305.7 242.7,298.566667 245.3,290.1 C247.9,281.633333 249.2,272.066667 249.2,261.4 C249.2,250.733333 247.9,241.266667 245.3,233 C242.7,224.733333 239.066667,217.733333 234.4,212 C229.733333,206.266667 224.133333,201.933333 217.6,199 C211.066667,196.066667 203.866667,194.6 196,194.6 C188.133333,194.6 180.933333,196.066667 174.4,199 C167.866667,201.933333 162.266667,206.233333 157.6,211.9 C152.933333,217.566667 149.3,224.566667 146.7,232.9 C144.1,241.233333 142.8,250.733333 142.8,261.4 C142.8,272.066667 144.1,281.633333 146.7,290.1 C149.3,298.566667 152.933333,305.7 157.6,311.5 C162.266667,317.3 167.866667,321.733333 174.4,324.8 C180.933333,327.866667 188.133333,329.4 196,329.4 Z M196,299.8 C190.4,299.8 186,296.366667 182.8,289.5 C179.6,282.633333 178,273.266667 178,261.4 C178,249.533333 179.6,240.366667 182.8,233.9 C186,227.433333 190.4,224.2 196,224.2 C201.6,224.2 206,227.433333 209.2,233.9 C212.4,240.366667 214,249.533333 214,261.4 C214,273.266667 212.4,282.633333 209.2,289.5 C206,296.366667 201.6,299.8 196,299.8 Z M123,497 L123,468.2 L67.6,468.2 L67.6,367 L33.2,367 L33.2,497 L123,497 Z M245,497 L245,468.2 L189.6,468.2 L189.6,367 L155.2,367 L155.2,497 L245,497 Z M335.2,497 L335.2,454 L376.4,367 L340.4,367 L329.6,395.4 C327.733333,400.466667 325.9,405.366667 324.1,410.1 C322.3,414.833333 320.466667,419.8 318.6,425 L318.6,425 L317.8,425 C315.933333,419.8 314.133333,414.833333 312.4,410.1 C310.666667,405.366667 308.933333,400.466667 307.2,395.4 L307.2,395.4 L296.4,367 L259.6,367 L300.8,454 L300.8,497 L335.2,497 Z" id="DOLLY" fill="#FFFFFF" fill-rule="nonzero"></path>
            </g>
        </g>
    </g>
</svg>